<?xml version="1.0" encoding="UTF-8"?>
<svg width="24px" height="24px" viewBox="0 0 24 24" version="1.1" xmlns="http://www.w3.org/2000/svg" xmlns:xlink="http://www.w3.org/1999/xlink">
    <title>1.Button/4.Icon/3.Square.Primary</title>
    <g id="使用帮助" stroke="none" stroke-width="1" fill="none" fill-rule="evenodd">
        <g id="使用帮助-拥有编辑权限" transform="translate(-311.000000, -118.000000)" fill-rule="nonzero">
            <g id="使用帮助" transform="translate(21.000000, 105.000000)">
                <g id="1.Button/4.Icon/2.Circle.Secondary#" transform="translate(290.000000, 13.000000)">
                    <g id="Z/Shape/RectangleRC/4px/RC-A" fill="#1890FF">
                        <rect id="BG/fill" x="0" y="0" width="24" height="24" rx="3"></rect>
                    </g>
                    <g id="7.Icon/suggested/1.plus" transform="translate(4.000000, 4.000000)" fill="#FFFFFF">
                        <path d="M13.25,7.40625 L8.59375,7.40625 L8.59375,2.375 L7.40625,2.375 L7.40625,7.40625 L2.75,7.40625 C2.68125,7.40625 2.625,7.4625 2.625,7.53125 L2.625,8.46875 C2.625,8.5375 2.68125,8.59375 2.75,8.59375 L7.40625,8.59375 L7.40625,13.625 L8.59375,13.625 L8.59375,8.59375 L13.25,8.59375 C13.31875,8.59375 13.375,8.5375 13.375,8.46875 L13.375,7.53125 C13.375,7.4625 13.31875,7.40625 13.25,7.40625 Z" id="fill"></path>
                    </g>
                </g>
            </g>
        </g>
    </g>
</svg>