<?xml version="1.0" encoding="UTF-8"?>
<svg width="24px" height="24px" viewBox="0 0 24 24" version="1.1" xmlns="http://www.w3.org/2000/svg" xmlns:xlink="http://www.w3.org/1999/xlink">
    <title>天气</title>
    <g id="dashboard" stroke="none" stroke-width="1" fill="none" fill-rule="evenodd">
        <g id="2" transform="translate(-258.000000, -503.000000)" fill-rule="nonzero">
            <g id="Group-9-Copy-4" transform="translate(20.000000, 427.000000)">
                <g id="Group-6-Copy-2" transform="translate(10.000000, 60.000000)">
                    <g id="天气" transform="translate(228.000000, 16.000000)">
                        <rect id="Rectangle" fill="#000000" opacity="0" x="1.87554493e-06" y="2.22713085e-06" width="23.9998273" height="23.9999978"></rect>
                        <path d="M23.9977419,12 C24.1177202,19.4483035 19.4481654,24.1130923 11.9999135,23.9979124 C4.55166161,24.1130923 -0.1130941,19.4483035 0.00208505587,12 C-0.1130941,4.55169391 4.55166161,-0.113094903 11.9999135,0.00208507069 C19.4481654,-0.113094903 24.1129211,4.55169394 23.9977419,12 Z" id="Path" fill="#C9C9C9"></path>
                        <path d="M9.59074954,9.68680096 C9.59074954,11.4888211 10.5521089,13.1539563 12.112693,14.0549664 C13.6732772,14.9559765 15.5959961,14.9559765 17.1565802,14.0549664 C18.7171643,13.1539563 19.6785237,11.4888211 19.6785237,9.68680096 C19.6785237,7.88478085 18.7171643,6.21964559 17.1565802,5.31863553 C15.5959961,4.41762547 13.6732772,4.41762547 12.1126931,5.31863553 C10.552109,6.21964559 9.59074954,7.88478085 9.59074954,9.68680096 L9.59074954,9.68680096 Z" id="Path" fill="#EDEDED"></path>
                        <path d="M4.3213033,13.3533634 C4.3213033,16.1390451 6.57952846,18.3972863 9.36519037,18.3972863 C12.1508523,18.3972863 14.4090774,16.1390451 14.4090774,13.3533634 C14.4090774,10.5676817 12.1508523,8.30944048 9.36519037,8.30944048 C6.57952846,8.30944048 4.3213033,10.5676817 4.3213033,13.3533634 Z" id="Path" fill="#FFFFFF"></path>
                        <path d="M9.60034781,11.5200822 L16.2423456,11.5200822 C18.1400944,11.5200822 19.6785237,13.0585224 19.6785237,14.9562846 C19.6785237,16.8540468 18.1400944,18.3924871 16.2423456,18.3924871 L9.60034781,18.3924871 L9.60034781,11.5200822 Z" id="Path" fill="#FFFFFF"></path>
                    </g>
                </g>
            </g>
        </g>
    </g>
</svg>