<?xml version="1.0" encoding="UTF-8"?>
<svg width="6px" height="13px" viewBox="0 0 6 13" version="1.1" xmlns="http://www.w3.org/2000/svg" xmlns:xlink="http://www.w3.org/1999/xlink">
    <title></title>
    <g id="页面-1" stroke="none" stroke-width="1" fill="none" fill-rule="evenodd">
        <g id="3个group目录收起" transform="translate(-964.000000, -766.000000)" fill-rule="nonzero">
            <g id="编组-2" transform="translate(119.000000, 686.000000)">
                <g id="编组-8" transform="translate(21.000000, 64.000000)">
                    <g id="编组" transform="translate(819.000000, 15.000000)">
                        <rect id="矩形" fill="#000000" opacity="0" transform="translate(11.313708, 11.313708) rotate(-315.000000) translate(-11.313708, -11.313708) " x="3.3137085" y="3.3137085" width="16" height="16"></rect>
                        <polygon id="路径" fill="#1890FF" transform="translate(7.759021, 7.759021) rotate(-315.000000) translate(-7.759021, -7.759021) " points="1.759021 5.04315003 5.04315003 1.759021 5.89476293 2.6106339 4.25347261 4.25347261 4.69166616 4.69166616 6.33450487 3.04882745 6.99566616 3.70998874 5.90095648 4.80469842 6.33915003 5.24289197 7.43385971 4.14818229 8.09037584 4.80469842 6.99566616 5.8994081 7.43385971 6.33760164 8.52856939 5.24289197 9.18508552 5.8994081 7.54224681 7.54224681 7.98044035 7.98044035 9.62327906 6.33760164 10.2797952 6.99411777 9.18508552 8.08882745 9.62327906 8.527021 10.7179887 7.43231132 11.3745049 8.08882745 10.2797952 9.18353713 10.7179887 9.62173068 11.8126984 8.527021 12.4692145 9.18353713 10.8263758 10.8263758 11.2645694 11.2645694 12.9074081 9.62173068 13.759021 10.4733436 10.474892 13.759021 1.759021 5.04315003"></polygon>
                    </g>
                </g>
            </g>
        </g>
    </g>
</svg>