<?xml version="1.0" encoding="UTF-8"?>
<svg width="24px" height="24px" viewBox="0 0 24 24" version="1.1" xmlns="http://www.w3.org/2000/svg" xmlns:xlink="http://www.w3.org/1999/xlink">
    <title></title>
    <g id="dashboard" stroke="none" stroke-width="1" fill="none" fill-rule="evenodd">
        <g id="Artboard" transform="translate(-214.000000, -98.000000)" fill-rule="nonzero">
            <g id="baseline_quantity" transform="translate(214.000000, 98.000000)">
                <rect id="Rectangle" fill="#000000" opacity="0" x="0" y="0" width="24" height="24"></rect>
                <path d="M13.9017136,8.0671875 L13.7095261,7.875 L12.7220261,6.8875 L12.3548386,6.5203125 L11.6876511,5.853125 L11.2454636,5.4125 L9.83296356,4 L4,9.83296356 L13.9,19.7329636 L19.7329636,13.9 L13.9017136,8.0671875 Z M9.83296356,5.1046875 L10.6923386,5.9640625 L9.03608856,7.621875 L9.47827606,8.0640625 L11.1360886,6.40625 L11.8032761,7.0734375 L10.6985886,8.178125 L11.1407761,8.6203125 L12.2454636,7.515625 L12.9079636,8.178125 L11.8032761,9.2828125 L12.2454636,9.725 L13.3501511,8.6203125 L14.0126511,9.2828125 L12.3548386,10.940625 L12.7970261,11.3828125 L14.4548386,9.725 L15.1173386,10.3875 L14.0126511,11.4921875 L14.4548386,11.934375 L15.5595261,10.8296875 L16.2220261,11.4921875 L15.1173386,12.596875 L15.5595261,13.0390625 L16.6642136,11.934375 L17.3267136,12.596875 L15.6689011,14.2546875 L16.1110886,14.696875 L17.7689011,13.0390625 L18.6282761,13.8984375 L13.9,18.6282761 L5.1046875,9.83296356 L9.83296356,5.1046875 Z" id="Shape" stroke="#68CB9E" stroke-width="0.5" fill-opacity="0.85" fill="#68CB9E" transform="translate(11.866482, 11.866482) rotate(135.000000) translate(-11.866482, -11.866482) "></path>
            </g>
        </g>
    </g>
</svg>