<?xml version="1.0" encoding="UTF-8"?>
<svg width="24px" height="24px" viewBox="0 0 24 24" version="1.1" xmlns="http://www.w3.org/2000/svg" xmlns:xlink="http://www.w3.org/1999/xlink">
    <title></title>
    <g id="dashboard" stroke="none" stroke-width="1" fill="none" fill-rule="evenodd">
        <g id="Artboard" transform="translate(-173.000000, -98.000000)" fill-rule="nonzero">
            <g id="benchmark_quantity" transform="translate(173.000000, 98.000000)">
                <path d="M19.5,2 C20.3284271,2 21,2.67157287 21,3.5 L21,20.5 C21,21.3284271 20.3284271,22 19.5,22 L4.5,22 C3.67157287,22 3,21.3284271 3,20.5 L3,3.5 C3,2.67157287 3.67157287,2 4.5,2 L19.5,2 Z M19,3.5 L5,3.5 C4.74651257,3.5 4.53315801,3.68975356 4.50349999,3.94150002 L4.5,4 L4.5,20 C4.5,20.2534874 4.68975355,20.466842 4.94149999,20.4965 L5,20.5 L19,20.5 C19.2534874,20.5 19.466842,20.3102465 19.4965,20.0585 L19.5,20 L19.5,4 C19.5,3.86739177 19.4473216,3.74021481 19.3535534,3.64644662 C19.2597852,3.55267842 19.1326083,3.5 19,3.5 Z M16.25,15.5 C16.6642136,15.5 17,15.8357864 17,16.25 C17,16.6642136 16.6642136,17 16.25,17 L10.25,17 C9.83578643,17 9.49999999,16.6642136 9.49999999,16.25 C9.49999999,15.8357864 9.83578643,15.5 10.25,15.5 L16.25,15.5 Z M7.75000001,15.5 C8.16421357,15.5 8.50000001,15.8357864 8.50000001,16.25 C8.50000001,16.6642136 8.16421357,17 7.75000001,17 C7.33578645,17 7.00000001,16.6642136 7.00000001,16.25 C7.00000001,15.8357864 7.33578645,15.5 7.75000001,15.5 Z M16.25,11.5 C16.6642136,11.5 17,11.8357865 17,12.25 C17,12.6642136 16.6642136,13 16.25,13 L10.25,13 C9.83578643,13 9.49999999,12.6642136 9.49999999,12.25 C9.49999999,11.8357865 9.83578643,11.5 10.25,11.5 L16.25,11.5 Z M7.75000001,11.5 C8.16421357,11.5 8.50000001,11.8357865 8.50000001,12.25 C8.50000001,12.6642136 8.16421357,13 7.75000001,13 C7.33578645,13 7.00000001,12.6642136 7.00000001,12.25 C7.00000001,11.8357865 7.33578645,11.5 7.75000001,11.5 Z M16.25,7.00000002 C16.6642136,7.00000002 17,7.33578645 17,7.75000002 C17,8.16421358 16.6642136,8.50000002 16.25,8.50000002 L10.25,8.50000002 C9.83578643,8.50000002 9.49999999,8.16421358 9.49999999,7.75000002 C9.49999999,7.33578645 9.83578643,7.00000002 10.25,7.00000002 L16.25,7.00000002 Z M7.75000001,7.00000002 C8.16421357,7.00000002 8.50000001,7.33578645 8.50000001,7.75000002 C8.50000001,8.16421358 8.16421357,8.50000002 7.75000001,8.50000002 C7.33578645,8.50000002 7.00000001,8.16421358 7.00000001,7.75000002 C7.00000001,7.33578645 7.33578645,7.00000002 7.75000001,7.00000002 Z" id="Shape" fill="#EBA23E"></path>
                <rect id="Rectangle" fill="#000000" opacity="0" x="0" y="0" width="24" height="24"></rect>
            </g>
        </g>
    </g>
</svg>