<?xml version="1.0" encoding="UTF-8"?>
<svg width="24px" height="24px" viewBox="0 0 24 24" version="1.1" xmlns="http://www.w3.org/2000/svg" xmlns:xlink="http://www.w3.org/1999/xlink">
    <title></title>
    <g id="创建计划" stroke="none" stroke-width="1" fill="none" fill-rule="evenodd">
        <g id="complete" fill="#81BF84">
            <path d="M11.8405316,0 C15.3289037,0.0897009787 18.2093023,1.26578072 20.4717608,3.5282392 C22.7342193,5.79069767 23.910299,8.67109634 24,12.1594684 C23.910299,15.4883721 22.7342193,18.269103 20.4717608,20.5116279 C18.2093023,22.7541528 15.3289037,23.910299 11.8405316,24 C8.51162792,23.910299 5.730897,22.744186 3.48837209,20.5116279 C1.24584718,18.269103 0.0897010063,15.4883721 0,12.1594684 C0.0897010063,8.67109634 1.25581395,5.80066444 3.48837209,3.5282392 C5.730897,1.26578072 8.51162789,0.0897009787 11.8405316,0 Z M18.1319416,7.52855283 C17.8633235,7.25993473 17.4314357,7.2540952 17.155719,7.51103426 L17.1375727,7.52855283 L10.6741748,13.9919508 L6.86242729,10.1802033 C6.5878399,9.90561587 6.14264577,9.90561587 5.86805838,10.1802033 C5.59944028,10.4488214 5.59360076,10.8807091 5.85053981,11.1564259 L5.86805838,11.1745722 L10.1769903,15.4835041 C10.4456084,15.7521222 10.8774962,15.7579617 11.153213,15.5010227 L11.1713592,15.4835041 L18.1319416,8.52292174 C18.406529,8.24833435 18.406529,7.80314022 18.1319416,7.52855283 Z" id="形状"></path>
        </g>
    </g>
</svg>