<?xml version="1.0" encoding="UTF-8"?>
<svg width="16px" height="17px" viewBox="0 0 16 17" version="1.1" xmlns="http://www.w3.org/2000/svg" xmlns:xlink="http://www.w3.org/1999/xlink">
    <g id="页面-1" stroke="none" stroke-width="1" fill="none" fill-rule="evenodd">
        <g id="测试结果编辑态" transform="translate(-285.000000, -2418.000000)" fill="#000000" fill-rule="nonzero">
            <g id="编组-3" transform="translate(219.000000, 56.000000)">
                <g id="Group-10" transform="translate(2.000000, 1683.450000)">
                    <g id="编组-10" transform="translate(20.000000, 175.450000)">
                        <g id="性能表格" transform="translate(16.000000, 65.000000)">
                            <g id="性能表1" transform="translate(16.000000, 348.000000)">
                                <g id="编组-3" transform="translate(12.000000, 14.000000)">
                                    <g id="删除备份-2" transform="translate(0.000000, 77.000000)">
                                        <rect id="矩形" opacity="0" x="0" y="0" width="16" height="16"></rect>
                                        <path d="M14.453125,5.2734375 C14.1,4.4390625 13.5953125,3.690625 12.953125,3.046875 C12.309375,2.403125 11.5609375,1.8984375 10.7265625,1.546875 C9.8625,1.18125 8.9453125,0.996875 8,0.996875 C7.0546875,0.996875 6.1375,1.18125 5.2734375,1.546875 C4.4390625,1.9 3.690625,2.4046875 3.046875,3.046875 C2.403125,3.690625 1.8984375,4.4390625 1.546875,5.2734375 C1.18125,6.1375 0.996875,7.0546875 0.996875,8 C0.996875,8.9453125 1.18125,9.8625 1.546875,10.7265625 C1.9,11.5609375 2.4046875,12.309375 3.046875,12.953125 C3.6890625,13.596875 4.4390625,14.1015625 5.2734375,14.453125 C6.1375,14.81875 7.0546875,15.003125 8,15.003125 C8.9453125,15.003125 9.8625,14.8171875 10.7265625,14.453125 C11.5609375,14.1 12.309375,13.5953125 12.953125,12.953125 C13.596875,12.3109375 14.1015625,11.5609375 14.453125,10.7265625 C14.81875,9.8625 15.003125,8.9453125 15.003125,8 C15.003125,7.0546875 14.81875,6.1375 14.453125,5.2734375 Z M8,14.378125 C4.4828125,14.378125 1.621875,11.5171875 1.621875,8 C1.621875,4.4828125 4.4828125,1.621875 8,1.621875 C11.5171875,1.621875 14.378125,4.4828125 14.378125,8 C14.378125,11.5171875 11.5171875,14.378125 8,14.378125 Z M11.521875,7.6875 L4.478125,7.6875 C4.30625,7.6875 4.165625,7.828125 4.165625,8 C4.165625,8.171875 4.30625,8.3125 4.478125,8.3125 L11.521875,8.3125 C11.69375,8.3125 11.834375,8.171875 11.834375,8 C11.834375,7.828125 11.69375,7.6875 11.521875,7.6875 L11.521875,7.6875 Z" id="形状" fill-opacity="0.45"></path>
                                    </g>
                                </g>
                            </g>
                        </g>
                    </g>
                </g>
            </g>
        </g>
    </g>
</svg>