<?xml version="1.0" encoding="UTF-8"?>
<svg width="20px" height="20px" viewBox="0 0 20 20" version="1.1" xmlns="http://www.w3.org/2000/svg" xmlns:xlink="http://www.w3.org/1999/xlink">
    <g id="使用帮助" stroke="none" stroke-width="1" fill-rule="evenodd">
        <g id="按下拖动调排序" transform="translate(-329.000000, -243.000000)" fill-rule="nonzero">
            <g id="使用帮助" transform="translate(21.000000, 105.000000)">
                <g id="内容区" transform="translate(0.000000, 57.000000)">
                    <g id="二级菜单-选中" transform="translate(0.000000, 73.000000)">
                        <g id="ellipsis" transform="translate(318.000000, 18.000000) rotate(-270.000000) translate(-318.000000, -18.000000) translate(308.000000, 8.000000)">
                            <rect id="矩形" opacity="0" x="0" y="0" width="19.2" height="19.2"></rect>
                            <path d="M3.3,9.58125 C3.3,9.95637887 3.50012886,10.3030123 3.82499999,10.4905767 C4.14987113,10.6781411 4.55012887,10.6781411 4.87500001,10.4905767 C5.19987114,10.3030123 5.4,9.95637887 5.4,9.58125 C5.4,9.20612113 5.19987114,8.85948775 4.87500001,8.67192331 C4.55012887,8.48435887 4.14987113,8.48435887 3.82499999,8.67192331 C3.50012886,8.85948775 3.3,9.20612113 3.3,9.58125 L3.3,9.58125 Z M8.55,9.58125 C8.55,10.161149 9.02010101,10.63125 9.6,10.63125 C10.179899,10.63125 10.65,10.161149 10.65,9.58125 C10.65,9.00135101 10.179899,8.53125 9.6,8.53125 C9.02010101,8.53125 8.55,9.00135101 8.55,9.58125 Z M13.8,9.58125 C13.8,10.161149 14.270101,10.63125 14.85,10.63125 C15.429899,10.63125 15.9,10.161149 15.9,9.58125 C15.9,9.00135101 15.429899,8.53125 14.85,8.53125 C14.270101,8.53125 13.8,9.00135101 13.8,9.58125 Z" id="形状" opacity="0.449999988"></path>
                        </g>
                    </g>
                </g>
            </g>
        </g>
    </g>
</svg>