<?xml version="1.0" encoding="UTF-8"?>
<svg width="24px" height="24px" viewBox="0 0 24 24" version="1.1" xmlns="http://www.w3.org/2000/svg" xmlns:xlink="http://www.w3.org/1999/xlink">
    <title></title>
    <g id="创建计划" stroke="none" stroke-width="1" fill="none" fill-rule="evenodd">
        <g id="fail" fill="#C84C5A">
            <path d="M11.8405316,0 C15.3289037,0.0897009787 18.2093023,1.26578072 20.4717608,3.5282392 C22.7342193,5.79069767 23.910299,8.67109634 24,12.1594684 C23.910299,15.4883721 22.7342193,18.269103 20.4717608,20.5116279 C18.2093023,22.7541528 15.3289037,23.910299 11.8405316,24 C8.51162792,23.910299 5.730897,22.744186 3.48837209,20.5116279 C1.24584718,18.269103 0.0897010063,15.4883721 0,12.1594684 C0.0897010063,8.67109634 1.25581395,5.80066444 3.48837209,3.5282392 C5.730897,1.26578072 8.51162789,0.0897009787 11.8405316,0 Z M16.0106213,8.05566999 C15.7420032,7.78705188 15.3101154,7.78121236 15.0343986,8.03815141 L15.0162524,8.05566999 L12,11.0719223 L8.98374764,8.05566999 C8.70916024,7.78108259 8.26396612,7.78108259 7.98937873,8.05566999 C7.72076062,8.32428809 7.7149211,8.75617587 7.97186015,9.03189265 L7.98937873,9.0500389 L11.0056311,12.0662913 L8.05566999,15.0162524 C7.78108259,15.2908398 7.78108259,15.7360339 8.05566999,16.0106213 C8.32428809,16.2792394 8.75617587,16.2850789 9.03189265,16.0281398 L9.0500389,16.0106213 L12,13.0606602 L14.9499611,16.0106213 C15.2245485,16.2852087 15.6697426,16.2852087 15.94433,16.0106213 C16.2129481,15.7420032 16.2187876,15.3101154 15.9618486,15.0343986 L15.94433,15.0162524 L12.9943689,12.0662913 L16.0106213,9.0500389 C16.2852087,8.7754515 16.2852087,8.33025738 16.0106213,8.05566999 Z" id="形状"></path>
        </g>
    </g>
</svg>