<?xml version="1.0" encoding="UTF-8"?>
<svg width="16px" height="16px" viewBox="0 0 16 16" version="1.1" xmlns="http://www.w3.org/2000/svg" xmlns:xlink="http://www.w3.org/1999/xlink">
    <title></title>
    <g id="Symbols" stroke="none" stroke-width="1" fill="none" fill-rule="evenodd">
        <g id="S_FAIL" transform="translate(-4.000000, -5.000000)">
            <g id="失败" transform="translate(4.000000, 5.000000)">
                <rect id="Rectangle" fill="#000000" fill-rule="nonzero" opacity="0" x="0" y="0" width="16" height="16"></rect>
                <path d="M8,0 C3.57333333,0 0,3.57333333 0,8 C0,12.4266666 3.57333333,16 8,16 C12.4266666,16 16,12.4266666 16,8 C16,3.57333333 12.4266666,0 8,0 L8,0 Z M10.8533334,12.1066666 L7.94666667,9.36 L5.22666667,12.2666666 L3.78666667,10.9066666 L6.50666667,8 L3.94666667,5.57333333 L5.30666667,4.13333333 L7.86666667,6.56 L10.2933334,4 L11.7333334,5.36 L9.33333336,7.92 L12.2133334,10.6666666 L10.8533334,12.1066666 L10.8533334,12.1066666 Z" id="Shape" fill="#C84C5A"></path>
            </g>
        </g>
    </g>
</svg>