<?xml version="1.0" encoding="UTF-8"?>
<svg width="14px" height="14px" viewBox="0 0 14 14" version="1.1" xmlns="http://www.w3.org/2000/svg" xmlns:xlink="http://www.w3.org/1999/xlink">
    <title></title>
    <g id="第二阶段-2" stroke="none" stroke-width="1" fill="none" fill-rule="evenodd">
        <g id="1.内核管理列表" transform="translate(-25.000000, -287.000000)" fill="#000000" fill-rule="nonzero">
            <g id="导航:2/导航菜单:1/左侧选中一级菜单:3" transform="translate(0.000000, 50.000000)">
                <g id="编组" transform="translate(0.000000, 24.000000)">
                    <g transform="translate(24.000000, 132.000000)" id="Group">
                        <g transform="translate(0.000000, 80.000000)">
                            <g id="脚本" transform="translate(1.000000, 1.000000)">
                                <rect id="Rectangle" opacity="0" x="0" y="0" width="14" height="14"></rect>
                                <path d="M12.8333333,0.583333338 C13.1554994,0.583333338 13.4166667,0.844500566 13.4166667,1.16666666 L13.4166667,12.8333333 C13.4166667,13.1554994 13.1554994,13.4166667 12.8333333,13.4166667 L1.16666666,13.4166667 C0.844500566,13.4166667 0.583333338,13.1554994 0.583333338,12.8333333 L0.583333338,1.16666666 C0.583333338,0.844500566 0.844500566,0.583333338 1.16666666,0.583333338 L12.8333333,0.583333338 Z M12.25,4.66666666 L1.75,4.66666666 L1.75,12.25 L12.25,12.25 L12.25,4.66666666 Z M5.23483334,6.11916666 C5.34459874,6.00156374 5.5288578,5.99503898 5.64666666,6.10458334 L6.07366666,6.50241666 C6.13024285,6.55523284 6.16350645,6.62837055 6.1661323,6.70572376 C6.16875815,6.78307697 6.14053092,6.85830206 6.08766666,6.91483334 L4.66841666,8.43616666 L6.08766666,9.95866666 C6.19736421,10.0763176 6.19110066,10.2605702 6.07366666,10.3705 L5.64666666,10.7683333 C5.52901568,10.8780309 5.34476314,10.8717673 5.23483334,10.7543333 L3.45741666,8.84858334 L3.25966666,8.66425 C3.19690941,8.6057115 3.16318279,8.52246226 3.1675,8.43675 L3.16925,8.38716666 C3.17729985,8.31883686 3.20934067,8.25558208 3.25966666,8.20866666 L3.45683334,8.02433334 L5.23483334,6.11916666 Z M8.76516666,6.11916666 L10.5425833,8.02433334 L10.7403333,8.20866666 C10.7928333,8.25766666 10.8225833,8.32125 10.83075,8.38716666 L10.8325,8.43616666 C10.8369922,8.52207879 10.803251,8.60557767 10.7403333,8.66425 L10.542,8.84858334 L8.76516666,10.7543333 C8.66912835,10.8572275 8.51330831,10.8768584 8.39475,10.801 L8.35333334,10.7683333 L7.92633334,10.3705 C7.80889934,10.2605702 7.80263579,10.0763176 7.91233334,9.95866666 L9.331,8.43616666 L7.91233334,6.91483334 C7.85946908,6.85830206 7.83124185,6.78307697 7.8338677,6.70572376 C7.83649355,6.62837055 7.86975715,6.55523284 7.92633334,6.50241666 L8.35333334,6.10458334 C8.4711422,5.99503898 8.65540126,6.00156374 8.76516666,6.11916666 L8.76516666,6.11916666 Z M12.25,1.75 L1.75,1.75 L1.75,3.5 L12.25,3.5 L12.25,1.75 Z" id="Shape"></path>
                            </g>
                        </g>
                    </g>
                </g>
            </g>
        </g>
    </g>
</svg>