<?xml version="1.0" encoding="UTF-8"?>
<svg width="48px" height="48px" viewBox="0 0 48 48" version="1.1" xmlns="http://www.w3.org/2000/svg" xmlns:xlink="http://www.w3.org/1999/xlink">
    <title></title>
    <g id="dashboard" stroke="none" stroke-width="1" fill="none" fill-rule="evenodd">
        <g id="Artboard" transform="translate(-1442.000000, -1132.000000)" fill="#EBA23E" fill-rule="nonzero">
            <g id="Group-112" transform="translate(1442.000000, 1132.000000)">
                <rect id="Rectangle" fill-opacity="0.1" x="0" y="0" width="48" height="48" rx="24"></rect>
                <g id="列表" transform="translate(15.000000, 13.500000)">
                    <path d="M16.5,0 C17.3284271,0 18,0.671572875 18,1.5 L18,18.5 C18,19.3284271 17.3284271,20 16.5,20 L1.5,20 C0.671572875,20 0,19.3284271 0,18.5 L0,1.5 C0,0.671572875 0.671572875,0 1.5,0 L16.5,0 Z M16,1.5 L2,1.5 C1.74651257,1.5 1.53315801,1.68975356 1.50349999,1.94150002 L1.5,2 L1.5,18 C1.5,18.2534874 1.68975355,18.466842 1.94149999,18.4965 L2,18.5 L16,18.5 C16.2534874,18.5 16.466842,18.3102465 16.4965,18.0585 L16.5,18 L16.5,2 C16.5,1.86739177 16.4473216,1.74021481 16.3535534,1.64644662 C16.2597852,1.55267842 16.1326083,1.5 16,1.5 Z M13.25,13.5 C13.6642136,13.5 14,13.8357864 14,14.25 C14,14.6642136 13.6642136,15 13.25,15 L7.24999999,15 C6.83578643,15 6.49999999,14.6642136 6.49999999,14.25 C6.49999999,13.8357864 6.83578643,13.5 7.24999999,13.5 L13.25,13.5 Z M4.75000001,13.5 C5.16421357,13.5 5.50000001,13.8357864 5.50000001,14.25 C5.50000001,14.6642136 5.16421357,15 4.75000001,15 C4.33578645,15 4.00000001,14.6642136 4.00000001,14.25 C4.00000001,13.8357864 4.33578645,13.5 4.75000001,13.5 Z M13.25,9.50000002 C13.6642136,9.50000002 14,9.83578645 14,10.25 C14,10.6642136 13.6642136,11 13.25,11 L7.24999999,11 C6.83578643,11 6.49999999,10.6642136 6.49999999,10.25 C6.49999999,9.83578645 6.83578643,9.50000002 7.24999999,9.50000002 L13.25,9.50000002 Z M4.75000001,9.50000002 C5.16421357,9.50000002 5.50000001,9.83578645 5.50000001,10.25 C5.50000001,10.6642136 5.16421357,11 4.75000001,11 C4.33578645,11 4.00000001,10.6642136 4.00000001,10.25 C4.00000001,9.83578645 4.33578645,9.50000002 4.75000001,9.50000002 Z M13.25,5.00000002 C13.6642136,5.00000002 14,5.33578645 14,5.75000002 C14,6.16421358 13.6642136,6.50000002 13.25,6.50000002 L7.24999999,6.50000002 C6.83578643,6.50000002 6.49999999,6.16421358 6.49999999,5.75000002 C6.49999999,5.33578645 6.83578643,5.00000002 7.24999999,5.00000002 L13.25,5.00000002 Z M4.75000001,5.00000002 C5.16421357,5.00000002 5.50000001,5.33578645 5.50000001,5.75000002 C5.50000001,6.16421358 5.16421357,6.50000002 4.75000001,6.50000002 C4.33578645,6.50000002 4.00000001,6.16421358 4.00000001,5.75000002 C4.00000001,5.33578645 4.33578645,5.00000002 4.75000001,5.00000002 Z" id="Shape"></path>
                </g>
            </g>
        </g>
    </g>
</svg>