<?xml version="1.0" encoding="UTF-8"?>
<svg width="12px" height="12px" viewBox="0 0 12 12" version="1.1" xmlns="http://www.w3.org/2000/svg" xmlns:xlink="http://www.w3.org/1999/xlink">
    <!-- <title>icon_arrow_3_+ copy 2</title> -->
    <g id="对比" stroke="none" stroke-width="1" fill="none" fill-rule="evenodd">
        <g id="14.对比结果展开" transform="translate(-906.000000, -657.000000)" fill-rule="nonzero">
            <g id="Group-42" transform="translate(0.000000, 534.000000)">
                <g id="Group-41" transform="translate(0.000000, 107.000000)">
                    <g id="Group-22" transform="translate(20.000000, 1.000000)">
                        <g id="Group-21-Copy-2" transform="translate(884.000000, 10.000000)">
                            <g id="排序" transform="translate(0.000000, 3.000000)">
                                <rect id="Rectangle" fill="#000000" opacity="0" x="0" y="0" width="16" height="16"></rect>
                                <path d="M10.2344,13.1928927 C10.0731411,13.1956471 9.91764813,13.1328419 9.80360311,13.0187969 C9.68955809,12.9047519 9.62675294,12.7492589 9.6296,12.588 L9.6296,3.4152 C9.62960001,3.08117819 9.90037819,2.81040003 10.2344,2.81040003 C10.5684218,2.81040003 10.8392,3.08117819 10.8392,3.4152 L10.8392,12.588 C10.8311885,12.9186465 10.5650465,13.1847885 10.2344,13.1928927 L10.2344,13.1928927 Z M13.04,6.82241461 C12.8786856,6.82354413 12.7241825,6.75745275 12.6136,6.64 L9.8136,3.84 C9.6624052,3.6888052 9.60335691,3.46843398 9.65869805,3.26189805 C9.71403919,3.05536211 9.87536211,2.89403919 10.081898,2.83869805 C10.288434,2.78335691 10.5088052,2.8424052 10.66,2.9936 L13.46,5.7936 C13.5757196,5.9039601 13.6412002,6.05689262 13.6412002,6.2168 C13.6412002,6.37670738 13.5757196,6.5296399 13.46,6.64 C13.3487327,6.75264685 13.1982728,6.81798944 13.04,6.82241461 L13.04,6.82241461 Z M5.6984,13.1928927 C5.53714112,13.1956471 5.38164813,13.1328419 5.26760311,13.0187969 C5.15355809,12.9047519 5.09075294,12.7492589 5.0936,12.588 L5.0936,3.4152 C5.0936,3.08117818 5.36437818,2.8104 5.6984,2.8104 C6.03242182,2.8104 6.3032,3.08117818 6.3032,3.4152 L6.3032,12.588 C6.29518849,12.9186465 6.02904649,13.1847885 5.6984,13.1928927 L5.6984,13.1928927 Z M5.6984,13.1928024 C5.53831678,13.1932636 5.3851604,13.1275424 5.2752,13.0112 L2.4752,10.2112 C2.24014761,9.97813584 2.23853584,9.59865239 2.4716,9.3636 C2.70466416,9.12854761 3.08414761,9.12693584 3.3192,9.36 L6.1192,12.16 C6.28848676,12.3327837 6.33853901,12.5898175 6.2464558,12.8134978 C6.1543726,13.0371782 5.93786735,13.1844774 5.696,13.188 L5.6984,13.1928024 Z" id="Shape" fill="#1890FF"></path>
                            </g>
                        </g>
                    </g>
                </g>
            </g>
        </g>
    </g>
</svg>