<?xml version="1.0" encoding="UTF-8"?>
<svg width="48px" height="48px" viewBox="0 0 48 48" version="1.1" xmlns="http://www.w3.org/2000/svg" xmlns:xlink="http://www.w3.org/1999/xlink">
    <title></title>
    <g id="dashboard" stroke="none" stroke-width="1" fill="none" fill-rule="evenodd">
        <g id="Artboard" transform="translate(-1616.000000, -1132.000000)" fill-rule="nonzero">
            <g id="Group-723" transform="translate(1616.000000, 1132.000000)">
                <circle id="Oval" fill-opacity="0.1" fill="#6A7E89" cx="24" cy="24" r="24"></circle>
                <g id="Group" transform="translate(12.000000, 12.000000)">
                    <g id="尺子" opacity="0" fill="#000000">
                        <rect id="Rectangle" x="0" y="0" width="24" height="24"></rect>
                    </g>
                    <rect id="Rectangle" fill="#000000" opacity="0" x="0" y="0" width="24" height="24"></rect>
                    <g id="电脑">
                        <rect id="Rectangle" fill="#000000" opacity="0" x="0" y="0" width="24" height="24"></rect>
                        <path d="M22.1,15.5 L1.90000001,15.5 C1.5,15.5 1.15000001,15.15 1.15000001,14.75 C1.15000001,14.35 1.5,14 1.90000001,14 L22.05,14 C22.45,14 22.8,14.35 22.8,14.75 C22.8,15.15 22.5,15.5 22.1,15.5 Z" id="Path" fill="#6A7E89"></path>
                        <path d="M19.75,18.4 L4.24999999,18.4 C2.55,18.4 1.2,17.05 1.2,15.35 L1.2,7.00000001 C1.2,5.30000002 2.55,3.94999999 4.24999999,3.94999999 L19.8,3.94999999 C21.5,3.94999999 22.85,5.29999999 22.85,7.00000001 L22.85,15.35 C22.85,17.05 21.45,18.4 19.75,18.4 Z M4.24999999,5.4 C3.39999998,5.4 2.7,6.10000001 2.7,6.94999999 L2.7,15.3 C2.7,16.15 3.40000001,16.85 4.24999999,16.85 L19.8,16.85 C20.65,16.85 21.35,16.15 21.35,15.3 L21.35,7.00000001 C21.35,6.15 20.65,5.45000002 19.8,5.44999999 L4.24999999,5.44999999 L4.24999999,5.4 Z M17.25,21.9 L6.75,21.9 C6.34999999,21.9 6,21.55 6,21.15 C6,20.75 6.34999999,20.4 6.75,20.4 L17.3,20.4 C17.7,20.4 18.05,20.75 18.05,21.15 C18.05,21.55 17.7,21.9 17.25,21.9 Z" id="Shape" fill="#6A7E89"></path>
                    </g>
                </g>
            </g>
        </g>
    </g>
</svg>