<?xml version="1.0" encoding="UTF-8"?>
<svg width="12px" height="14px" viewBox="0 0 12 14" version="1.1" xmlns="http://www.w3.org/2000/svg" xmlns:xlink="http://www.w3.org/1999/xlink">
    <title></title>
    <g id="第二阶段-2" stroke="none" stroke-width="1" fill="none" fill-rule="evenodd">
        <g id="Artboard" transform="translate(-21.000000, -12.000000)" fill="#000000" fill-rule="nonzero">
            <g id="数据" transform="translate(19.000000, 11.000000)">
                <rect id="Rectangle" opacity="0" x="0" y="0" width="16" height="16"></rect>
                <path d="M3.6,6.94222222 C2.80592592,6.94222222 2.16,6.30074073 2.16,5.51111111 C2.16,4.72148148 2.80592592,4.08 3.6,4.08 C4.39407408,4.08 5.04,4.72148148 5.04,5.51111111 C5.04,6.30074073 4.39407408,6.94222222 3.6,6.94222222 Z M3.6,4.74666667 C3.17333333,4.74666667 2.82666667,5.09037037 2.82666667,5.51111111 C2.82666667,5.93185184 3.17333334,6.27555556 3.6,6.27555556 C4.02666666,6.27555556 4.37333333,5.93185186 4.37333333,5.51111111 C4.37333333,5.09037036 4.02666666,4.74666667 3.6,4.74666667 L3.6,4.74666667 Z M4.71407408,14.0074074 C3.92,14.0074074 3.27407408,13.3659259 3.27407408,12.5762963 C3.27407408,11.7866667 3.92,11.1451852 4.71407408,11.1451852 C5.50814816,11.1451852 6.15407408,11.7866667 6.15407408,12.5762963 C6.15407408,13.3659259 5.50814816,14.0074074 4.71407408,14.0074074 Z M4.71407408,11.8118519 C4.28740741,11.8118519 3.94074073,12.1555556 3.94074073,12.5762963 C3.94074073,12.9985185 4.28740741,13.3407407 4.71407408,13.3407407 C5.14074075,13.3407407 5.48740741,12.997037 5.48740741,12.5762963 C5.48592592,12.1540741 5.13925927,11.8118519 4.71407408,11.8118519 Z M12.4059259,8.60296297 C11.6118518,8.60296297 10.9659259,7.96148148 10.9659259,7.17185186 C10.9659259,6.38222223 11.6118518,5.74074073 12.4059259,5.74074073 C13.2,5.74074073 13.8459259,6.38222222 13.8459259,7.17185186 C13.8459259,7.9614815 13.2,8.60296297 12.4059259,8.60296297 Z M12.4059259,6.40740741 C11.9792592,6.40740741 11.6325926,6.75111111 11.6325926,7.17185186 C11.6325926,7.59407408 11.9792593,7.9362963 12.4059259,7.9362963 C12.8325926,7.9362963 13.1792593,7.59259259 13.1792593,7.17185186 C13.1792593,6.74962964 12.8311111,6.40740741 12.4059259,6.40740741 Z M10.4977778,12.9274074 C9.84444445,12.9274074 9.31407408,12.3985185 9.31407408,11.7496296 C9.31407408,11.1007407 9.84592594,10.5718519 10.4977778,10.5718519 C11.1496296,10.5718519 11.6814815,11.1007407 11.6814815,11.7496296 C11.6814815,12.3985185 11.1511111,12.9274074 10.4977778,12.9274074 Z M10.4977778,11.2385185 C10.2118519,11.2385185 9.98074073,11.4681481 9.98074073,11.7496296 C9.98074073,12.0311111 10.2133333,12.2607407 10.4977778,12.2607407 C10.7822222,12.2607407 11.0148148,12.0311111 11.0148148,11.7496296 C11.0148148,11.4666667 10.7822222,11.2385185 10.4977778,11.2385185 Z M7.50518519,10.8148148 C6.10222222,10.8148148 4.96,9.68 4.96,8.28592592 C4.96,6.89185184 6.10222222,5.75703703 7.50518519,5.75703703 C8.90814816,5.75703703 10.0503704,6.89185184 10.0503704,8.28592592 C10.0503704,9.68 8.90814814,10.8148148 7.50518519,10.8148148 Z M7.50518519,6.4237037 C6.46962962,6.4237037 5.62666667,7.25925927 5.62666667,8.28592592 C5.62666667,9.31259258 6.46814814,10.1481481 7.50518519,10.1481481 C8.54222223,10.1481481 9.3837037,9.31259258 9.3837037,8.28592592 C9.3837037,7.25925927 8.54074073,6.4237037 7.50518519,6.4237037 Z M9.2162963,5.3762963 C8.28148148,5.3762963 7.52148148,4.62074073 7.52148148,3.69185186 C7.52148148,2.76296298 8.28148148,2.00740741 9.2162963,2.00740741 C10.1511111,2.00740741 10.9111111,2.76296297 10.9111111,3.69185186 C10.9111111,4.62074075 10.1496296,5.3762963 9.2162963,5.3762963 Z M9.2162963,2.67407408 C8.64888889,2.67407408 8.18814814,3.13037038 8.18814814,3.69185186 C8.18814814,4.25333334 8.64888887,4.70962962 9.2162963,4.70962962 C9.78370372,4.70962962 10.2444444,4.25333333 10.2444444,3.69185186 C10.2444444,3.13037039 9.78222222,2.67407408 9.2162963,2.67407408 Z M9.66074073,8.12888889 C9.50814814,8.12888889 9.37185184,8.0237037 9.3362963,7.86962962 C9.29481481,7.69037036 9.40740741,7.51111111 9.58666667,7.47111111 L11.2592593,7.09037037 C11.4385185,7.04888889 11.6177778,7.16148148 11.6577778,7.34074073 C11.6977778,7.51999998 11.5866667,7.69925925 11.4074074,7.73925927 L9.73481481,8.12 C9.71111111,8.12592592 9.68592592,8.12888889 9.66074073,8.12888889 Z M8.27259259,6.56 C8.23407408,6.56 8.19407408,6.55259259 8.15555556,6.53925927 C7.9837037,6.47555556 7.89481483,6.28296297 7.96,6.11111111 L8.43111111,4.84444444 C8.49481481,4.67259258 8.68740741,4.5837037 8.85925927,4.64888889 C9.03111112,4.71259259 9.12,4.90518519 9.05481481,5.07703703 L8.5837037,6.3437037 C8.53481481,6.47703703 8.40740741,6.56 8.27259259,6.56 L8.27259259,6.56 Z M5.70518519,7.34074073 C5.63851852,7.34074073 5.57037037,7.32 5.51259259,7.27851852 L4.30666667,6.42074073 C4.15703705,6.31407406 4.12148148,6.10666666 4.22814814,5.95555556 C4.33481481,5.80592594 4.54222222,5.77037037 4.69333333,5.87703703 L5.89925927,6.73481481 C6.04888889,6.84148148 6.08444445,7.04888889 5.97777778,7.2 C5.91259259,7.29185186 5.81037037,7.34074073 5.70518519,7.34074073 L5.70518519,7.34074073 Z M5.35703703,12.0162963 C5.2962963,12.0162963 5.23407406,12 5.17925927,11.9644444 C5.0237037,11.8666667 4.97777778,11.6607407 5.07555556,11.5051852 L6.04740741,9.96888889 C6.14518519,9.81333333 6.35111111,9.76740741 6.50666667,9.86518519 C6.66222223,9.96296297 6.70814816,10.1688889 6.61037037,10.3244444 L5.63851852,11.8607407 C5.57481481,11.9614815 5.46666666,12.0162963 5.35703703,12.0162963 Z M9.93925927,11.4459259 C9.84592594,11.4459259 9.75407408,11.4074074 9.68888889,11.3318519 L8.68148148,10.1822222 C8.56,10.0444444 8.57333334,9.83259259 8.71259259,9.71111111 C8.85037037,9.58962963 9.06222222,9.60296297 9.1837037,9.74222222 L10.1911111,10.8918519 C10.3125926,11.0296296 10.2992592,11.2414815 10.16,11.362963 C10.0962963,11.4177778 10.0177778,11.4459259 9.93925927,11.4459259 L9.93925927,11.4459259 Z" id="Shape" stroke-width="0.3" opacity="0.85"></path>
            </g>
        </g>
    </g>
</svg>