<?xml version="1.0" encoding="UTF-8"?>
<svg width="16px" height="16px" viewBox="0 0 16 16" version="1.1" xmlns="http://www.w3.org/2000/svg" xmlns:xlink="http://www.w3.org/1999/xlink">
    <title></title>
    <g id="icon-system-suite-magner-normal" stroke="none" stroke-width="1" fill="none" fill-rule="evenodd" fill-opacity="0.85">
        <g id="列表" transform="translate(2.000000, 1.000000)" fill="#000000" fill-rule="nonzero">
            <path d="M11,0 C11.5522847,0 12,0.44771525 12,1 L12,12.3333333 C12,12.8856181 11.5522847,13.3333333 11,13.3333333 L1,13.3333333 C0.44771525,13.3333333 0,12.8856181 0,12.3333333 L0,1 C0,0.44771525 0.44771525,0 1,0 L11,0 Z M10.6666667,1 L1.33333333,1 C1.16434171,1 1.02210534,1.12650238 1.00233333,1.29433334 L1,1.33333334 L1,12 C1,12.1689916 1.12650237,12.311228 1.29433333,12.331 L1.33333333,12.3333333 L10.6666667,12.3333333 C10.8356583,12.3333333 10.9778947,12.206831 10.9976667,12.039 L11,12 L11,1.33333334 C11,1.24492785 10.9648811,1.16014321 10.9023689,1.09763108 C10.8398568,1.03511895 10.7550722,1 10.6666667,1 Z M8.83333333,9 C9.1094757,9 9.33333333,9.22385763 9.33333333,9.5 C9.33333333,9.77614237 9.1094757,10 8.83333333,10 L4.83333333,10 C4.55719095,10 4.33333333,9.77614237 4.33333333,9.5 C4.33333333,9.22385763 4.55719095,9 4.83333333,9 L8.83333333,9 Z M3.16666667,9 C3.44280905,9 3.66666667,9.22385763 3.66666667,9.5 C3.66666667,9.77614237 3.44280905,10 3.16666667,10 C2.8905243,10 2.66666667,9.77614237 2.66666667,9.5 C2.66666667,9.22385763 2.8905243,9 3.16666667,9 Z M8.83333333,6.33333334 C9.1094757,6.33333334 9.33333333,6.55719097 9.33333333,6.83333334 C9.33333333,7.10947572 9.1094757,7.33333334 8.83333333,7.33333334 L4.83333333,7.33333334 C4.55719095,7.33333334 4.33333333,7.10947572 4.33333333,6.83333334 C4.33333333,6.55719097 4.55719095,6.33333334 4.83333333,6.33333334 L8.83333333,6.33333334 Z M3.16666667,6.33333334 C3.44280905,6.33333334 3.66666667,6.55719097 3.66666667,6.83333334 C3.66666667,7.10947572 3.44280905,7.33333334 3.16666667,7.33333334 C2.8905243,7.33333334 2.66666667,7.10947572 2.66666667,6.83333334 C2.66666667,6.55719097 2.8905243,6.33333334 3.16666667,6.33333334 Z M8.83333333,3.33333334 C9.1094757,3.33333334 9.33333333,3.55719097 9.33333333,3.83333334 C9.33333333,4.10947572 9.1094757,4.33333334 8.83333333,4.33333334 L4.83333333,4.33333334 C4.55719095,4.33333334 4.33333333,4.10947572 4.33333333,3.83333334 C4.33333333,3.55719097 4.55719095,3.33333334 4.83333333,3.33333334 L8.83333333,3.33333334 Z M3.16666667,3.33333334 C3.44280905,3.33333334 3.66666667,3.55719097 3.66666667,3.83333334 C3.66666667,4.10947572 3.44280905,4.33333334 3.16666667,4.33333334 C2.8905243,4.33333334 2.66666667,4.10947572 2.66666667,3.83333334 C2.66666667,3.55719097 2.8905243,3.33333334 3.16666667,3.33333334 Z" id="Shape"></path>
        </g>
    </g>
</svg>