<?xml version="1.0" encoding="UTF-8"?>
<svg width="16px" height="16px" viewBox="0 0 16 16" version="1.1" xmlns="http://www.w3.org/2000/svg" xmlns:xlink="http://www.w3.org/1999/xlink">
    <title></title>
    <g id="icon-user-ip-setting-pressed" stroke="none" stroke-width="1" fill="none" fill-rule="evenodd">
        <rect id="Rectangle" fill="#000000" fill-rule="nonzero" opacity="0" x="0" y="0" width="16" height="16"></rect>
        <g id="电脑" transform="translate(0.766667, 2.633333)" fill="#000000" fill-opacity="0.85" fill-rule="nonzero">
            <path d="M10.7666667,10.9666667 C11.0333333,10.9666667 11.2666667,11.2 11.2666667,11.4666667 C11.2666667,11.7333333 11.0333333,11.9666667 10.7333333,11.9666667 L3.73333333,11.9666667 C3.46666666,11.9666667 3.23333333,11.7333333 3.23333333,11.4666667 C3.23333333,11.2 3.46666666,10.9666667 3.73333333,10.9666667 L10.7666667,10.9666667 Z M12.4333333,-4.08562073e-14 C13.5666667,-4.08562073e-14 14.4666667,0.9 14.4666667,2.03333334 L14.4666667,7.6 C14.4666667,8.73333333 13.5333333,9.63333334 12.4,9.63333334 L2.06666666,9.63333334 C0.933333328,9.63333334 0.0333333281,8.73333334 0.0333333281,7.6 L0.0331796497,7.37271099 C0.0118199796,7.31834942 -2.7533531e-14,7.26001899 -2.7533531e-14,7.2 C-2.7533531e-14,7.13998101 0.0118199796,7.08165058 0.0331796497,7.02728901 L0.0333333281,2.03333334 C0.0333333281,0.900000016 0.933333328,-4.08562073e-14 2.06666666,-4.08562073e-14 L12.4333333,-4.08562073e-14 Z M13.4580002,7.69975397 L1.04199975,7.69975397 C1.10817551,8.20459309 1.54505606,8.6 2.06666666,8.6 L12.4333333,8.6 C12.9549439,8.6 13.3918245,8.20459307 13.4580002,7.69975397 Z M2.06666666,0.966666672 C1.49999998,0.966666672 1.03333333,1.43333334 1.03333333,2 L1.033,6.699 L13.466,6.699 L13.4666667,2.03333334 C13.4666667,1.46666667 13,1.00000002 12.4333333,1 L2.06666666,1 L2.06666666,0.966666672 Z" id="Combined-Shape"></path>
        </g>
    </g>
</svg>