<?xml version="1.0" encoding="UTF-8"?>
<svg width="16px" height="16px" viewBox="0 0 16 16" version="1.1" xmlns="http://www.w3.org/2000/svg" xmlns:xlink="http://www.w3.org/1999/xlink">
    <title></title>
    <g id="icon_Git" stroke="none" stroke-width="1" fill="none" fill-rule="evenodd">
        <g id="10仓库、仓储-线性" fill="#000000" fill-rule="nonzero">
            <rect id="Rectangle" opacity="0" x="0" y="0" width="16" height="16"></rect>
            <path d="M8.0125,2.225 L12,5.0875 L12,13 L4,13 L4,5.0875 L8.0125,2.225 M8.0125,1.1125 C7.9125,1.1125 7.8125,1.1375 7.725,1.2 L1.625,5.55 C1.425,5.6875 1.525,6 1.775,6 L3,6 L3,13.75 C3,13.8875 3.1125,14 3.25,14 L12.75,14 C12.8875,14 13,13.8875 13,13.75 L13,6 L14.225,6 C14.4625,6 14.5625,5.6875 14.375,5.55 L8.3,1.2125 C8.2125,1.15 8.1125,1.1125 8.0125,1.1125 Z M10,7 L6,7 L6,8 L10,8 L10,7 Z M10,9 L6,9 L6,10 L10,10 L10,9 Z M10,11 L6,11 L6,12 L10,12 L10,11 Z" id="Shape"></path>
        </g>
    </g>
</svg>