<?xml version="1.0" encoding="UTF-8"?>
<svg width="14px" height="13px" viewBox="0 0 14 13" version="1.1" xmlns="http://www.w3.org/2000/svg" xmlns:xlink="http://www.w3.org/1999/xlink">
    <title></title>
    <g id="体验升级-第一阶段" stroke="none" stroke-width="1" fill="none" fill-rule="evenodd">
        <g id="1.ws系统级" transform="translate(-373.000000, -18.000000)" fill="#FFFFFF">
            <g id="Group-11" transform="translate(185.000000, 14.000000)">
                <g id="Group-19" transform="translate(187.000000, 0.000000)">
                    <g id="icon_system_system" transform="translate(0.000000, 3.000000)">
                        <path d="M11,13.3333333 C11.1840949,13.3333333 11.3333333,13.4825718 11.3333333,13.6666667 C11.3333333,13.8507616 11.1840949,14 11,14 L5,14 C4.81590508,14 4.66666667,13.8507616 4.66666667,13.6666667 C4.66666667,13.4825718 4.81590508,13.3333333 5,13.3333333 L11,13.3333333 Z M12.6666667,1.33333333 C13.7712362,1.33333333 14.6666667,2.22876383 14.6666667,3.33333333 L14.6666667,10 C14.6666667,11.1045695 13.7712362,12 12.6666667,12 L3.33333333,12 C2.22876383,12 1.33333333,11.1045695 1.33333333,10 L1.33333333,3.33333333 C1.33333333,2.22876383 2.22876383,1.33333333 3.33333333,1.33333333 L12.6666667,1.33333333 Z M6.77816187,4.42670689 L4.19246183,6.91980862 L6.77234447,9.53243351 L7.24671208,9.06401083 L5.14066667,6.93133333 L7.24089469,4.90662644 L6.77816187,4.42670689 Z M9.7152623,4.42670689 L9.25252948,4.90662644 L11.3529524,6.93133333 L9.24671208,9.06401083 L9.7210797,9.53243351 L12.3009623,6.91980862 L9.7152623,4.42670689 Z M8.91337875,4.66666667 L7.91337875,4.66666667 L7.91337875,9.29822217 L8.91337875,9.29822217 L8.91337875,4.66666667 Z" id="Combined-Shape"></path>
                    </g>
                </g>
            </g>
        </g>
    </g>
</svg>