<?xml version="1.0" encoding="UTF-8"?>
<svg width="16px" height="16px" viewBox="0 0 16 16" version="1.1" xmlns="http://www.w3.org/2000/svg" xmlns:xlink="http://www.w3.org/1999/xlink">
    <title></title>
    <g id="icon_product" stroke="none" stroke-width="1" fill="none" fill-rule="evenodd">
        <g id="产品" fill="#000000" fill-rule="nonzero">
            <rect id="Rectangle" opacity="0" x="0" y="0" width="16" height="16"></rect>
            <path d="M2.3,10 L3.46666667,11.0666667 L7.86666667,13.8333333 L12.3,11.1333333 L13.5,10.1 L14.4767307,10.705573 C14.5431402,10.7467469 14.5989755,10.8029122 14.6397573,10.8695631 C14.7838823,11.1051106 14.7097697,11.4128959 14.4742222,11.5570208 L14.4742222,11.5570208 L8.12957146,15.4391359 C7.96838358,15.5377623 7.76536386,15.5370905 7.60483219,15.4373996 L7.60483219,15.4373996 L1.25376839,11.49336 C1.18785908,11.45243 1.13237887,11.3967237 1.09171721,11.3306485 C0.946991705,11.0954696 1.02031871,10.7874962 1.25549766,10.6427707 L1.25549766,10.6427707 L2.3,10 Z M2.3,7 L3.46666667,8.06666667 L7.86666667,10.8 L12.3333333,8.1 L13.5,7.06666667 L14.5123808,7.70188597 C14.5785662,7.74341407 14.6340978,7.79987555 14.6745212,7.86674137 C14.8173844,8.10305629 14.7416267,8.41044082 14.5053118,8.55330394 L14.5053118,8.55330394 L8.1294562,12.4077985 C7.96825076,12.5052545 7.76595349,12.5038364 7.6061301,12.4041301 L7.6061301,12.4041301 L1.2888668,8.4630851 C1.22254928,8.4217127 1.16685522,8.36536837 1.12625538,8.29857509 C0.982822806,8.06260537 1.05783898,7.75503905 1.2938087,7.61160647 L1.2938087,7.61160647 L2.3,7 Z M8.12806787,0.727804398 L14.4736327,4.63945395 C14.708701,4.78435908 14.7817927,5.09238842 14.6368876,5.32745674 C14.5956565,5.39434275 14.5392424,5.45057012 14.47222,5.49157922 L8.1286007,9.37306319 C7.96791987,9.47137932 7.76561944,9.47104394 7.60526547,9.3721956 L1.25970065,5.46054605 C1.02463233,5.31564092 0.95154062,5.00761158 1.09644575,4.77254326 C1.13767685,4.70565725 1.19409096,4.64942988 1.26111331,4.60842078 L7.60473264,0.72693681 C7.76541347,0.628620683 7.9677139,0.628956058 8.12806787,0.727804398 Z M7.86666667,2.33333333 L3.46666667,5.03333333 L7.9,7.76666667 L12.3333333,5.03333333 L7.86666667,2.33333333 Z" id="Combined-Shape" fill-opacity="0.85"></path>
        </g>
    </g>
</svg>