<?xml version="1.0" encoding="UTF-8"?>
<svg width="16px" height="16px" viewBox="0 0 16 16" version="1.1" xmlns="http://www.w3.org/2000/svg" xmlns:xlink="http://www.w3.org/1999/xlink">
    <title></title>
    <g id="icon_Results-pressed" stroke="none" stroke-width="1" fill="none" fill-rule="evenodd" fill-opacity="0.85">
        <g id="Group" transform="translate(1.000000, 2.000000)" fill="#000000" fill-rule="nonzero">
            <path d="M8,0 C8.55228475,-1.01453063e-16 9,0.44771525 9,1 L9,3 C9,3.55228475 8.55228475,4 8,4 L7.5,4 L7.5,5.499 L11,5.5 C11.7796961,5.5 12.4204487,6.09488808 12.4931334,6.85553999 L12.5,7 L12.5,8 L13,8 C13.5522847,8 14,8.44771525 14,9 L14,11 C14,11.5522847 13.5522847,12 13,12 L11,12 C10.4477153,12 10,11.5522847 10,11 L10,9 C10,8.44771525 10.4477153,8 11,8 L11.5,8 L11.5,7 C11.5,6.75454011 11.3231248,6.55039163 11.0898756,6.50805567 L11,6.5 L7.5,6.499 L7.5,8 L8,8 C8.55228475,8 9,8.44771525 9,9 L9,11 C9,11.5522847 8.55228475,12 8,12 L6,12 C5.44771525,12 5,11.5522847 5,11 L5,9 C5,8.44771525 5.44771525,8 6,8 L6.5,8 L6.5,6.499 L3,6.5 C2.75454011,6.5 2.55039163,6.67687516 2.50805567,6.91012437 L2.5,7 L2.5,8 L3,8 C3.55228475,8 4,8.44771525 4,9 L4,11 C4,11.5522847 3.55228475,12 3,12 L1,12 C0.44771525,12 6.76353751e-17,11.5522847 0,11 L0,9 C-6.76353751e-17,8.44771525 0.44771525,8 1,8 L1.5,8 L1.5,7 C1.5,6.22030388 2.09488808,5.57955132 2.85553999,5.50686658 L3,5.5 L6.5,5.499 L6.5,4 L6,4 C5.44771525,4 5,3.55228475 5,3 L5,1 C5,0.44771525 5.44771525,1.01453063e-16 6,0 L8,0 Z" id="Combined-Shape"></path>
        </g>
    </g>
</svg>