<?xml version="1.0" encoding="UTF-8"?>
<svg width="12px" height="14px" viewBox="0 0 12 14" version="1.1" xmlns="http://www.w3.org/2000/svg" xmlns:xlink="http://www.w3.org/1999/xlink">
    <title></title>
    <g id="体验升级-第一阶段" stroke="none" stroke-width="1" fill="none" fill-rule="evenodd">
        <g id="3.切换ws下拉" transform="translate(-774.000000, -18.000000)" fill="#FFFFFF" fill-rule="nonzero">
            <g id="分组-2" transform="translate(324.000000, 14.000000)">
                <g id="Group-21" transform="translate(448.000000, 0.000000)">
                    <g id="Group" transform="translate(0.000000, 3.000000)">
                        <g id="Group-2" transform="translate(2.000000, 1.007936)">
                            <path d="M7.25177424,-1.08801856e-14 C7.91628291,-1.08801856e-14 8.49534322,0.435985788 8.68618968,1.06111483 L8.72103296,1.19787614 L8.884,1.992 L11,1.99206449 C11.5522847,1.99206449 12,2.43977974 12,2.99206449 L12,12.9920645 C12,13.5443492 11.5522847,13.9920645 11,13.9920645 L1,13.9920645 C0.44771525,13.9920645 0,13.5443492 0,12.9920645 L0,2.99206449 C0,2.43977974 0.44771525,1.99206449 1,1.99206449 L3.364,1.992 L3.50117913,1.23344768 C3.621525,0.566990358 4.17100871,0.0701167248 4.83368606,0.00682893949 L4.97730577,-1.08801856e-14 L7.25177424,-1.08801856e-14 Z M11,2.99206449 L1,2.99206449 L1,12.9920645 L11,12.9920645 L11,2.99206449 Z M6.012,8.70856449 C6.28814237,8.70856449 6.512,8.93242212 6.512,9.20856449 C6.512,9.45402438 6.33512484,9.65817286 6.10187563,9.70050882 L6.012,9.70856449 L2.184,9.70856449 C1.90785763,9.70856449 1.684,9.48470687 1.684,9.20856449 C1.684,8.9631046 1.86087516,8.75895612 2.09412437,8.71662016 L2.184,8.70856449 L6.012,8.70856449 Z M8.012,5.70856449 C8.28814237,5.70856449 8.512,5.93242212 8.512,6.20856449 C8.512,6.45402438 8.33512484,6.65817286 8.10187563,6.70050882 L8.012,6.70856449 L2.184,6.70856449 C1.90785763,6.70856449 1.684,6.48470687 1.684,6.20856449 C1.684,5.9631046 1.86087516,5.75895612 2.09412437,5.71662016 L2.184,5.70856449 L8.012,5.70856449 Z M7.25177424,1 L4.97730577,1 C4.76566954,1 4.58058397,1.1325517 4.5088257,1.32514475 L4.48526356,1.41114923 L4.38,1.992 L7.863,1.992 L7.74152715,1.39929205 C7.69970133,1.19588889 7.53780522,1.04273328 7.33899582,1.00762256 L7.25177424,1 Z" id="Combined-Shape"></path>
                        </g>
                    </g>
                </g>
            </g>
        </g>
    </g>
</svg>