<?xml version="1.0" encoding="UTF-8"?>
<svg width="12px" height="14px" viewBox="0 0 12 14" version="1.1" xmlns="http://www.w3.org/2000/svg" xmlns:xlink="http://www.w3.org/1999/xlink">
    <title></title>
    <g id="test-suite检索" stroke="none" stroke-width="1" fill="none" fill-rule="evenodd">
        <g id="1.搜索页" transform="translate(-869.000000, -573.000000)" fill-rule="nonzero">
            <g id="Group-3" transform="translate(371.000000, 336.000000)">
                <g id="Group-2" transform="translate(0.000000, 34.000000)">
                    <g id="w创建" transform="translate(30.000000, 9.000000)">
                        <g id="认证" transform="translate(466.000000, 193.000000)">
                            <rect id="Rectangle" fill="#000000" opacity="0" x="0" y="0" width="16" height="16"></rect>
                            <path d="M7.57066667,1.20613333 L2.77066667,3.31546667 C2.38352522,3.48568842 2.13351096,3.86855543 2.13333333,4.29146667 L2.13333333,7.59733333 C2.13333333,9.62213333 3.03893333,11.4314667 4.63466667,12.6784 L7.38506667,14.6192 C7.75375749,14.8793285 8.24624251,14.8793285 8.61493333,14.6192 L11.3445333,12.6938667 C12.9610667,11.4312 13.8666667,9.62186667 13.8666667,7.59733333 L13.8666667,4.29173333 C13.8666667,3.86862857 13.6166519,3.48549966 13.2293333,3.3152 L8.42933333,1.20586667 C8.15574995,1.0855751 7.84425005,1.0855751 7.57066667,1.20586667 L7.57066667,1.20613333 Z M3.2,4.29173333 L8,2.1824 L12.8,4.29173333 L12.8,7.59733333 C12.8,9.2896 12.0488,10.7906667 10.7085333,11.8378667 L8,13.7474667 L5.2704,11.8221333 C3.9512,10.7898667 3.2,9.28906667 3.2,7.5968 L3.2,4.29173333 Z" id="Shape" fill="#333333" opacity="0.800000012"></path>
                            <path d="M10.6666667,5.6 L11.4208,6.35413333 L7.95413333,9.8208 C7.74586674,10.0290037 7.40826659,10.0290037 7.2,9.8208 L5.06666667,7.68746667 L5.8208,6.93333333 L7.57706667,8.68933333 L10.6666667,5.6 Z" id="Path" fill="#00B386"></path>
                        </g>
                    </g>
                </g>
            </g>
        </g>
    </g>
</svg>