<?xml version="1.0" encoding="UTF-8"?>
<svg width="9px" height="10px" viewBox="0 0 9 10" version="1.1" xmlns="http://www.w3.org/2000/svg" xmlns:xlink="http://www.w3.org/1999/xlink">
    <title></title>
    <g id="test-suite检索" stroke="none" stroke-width="1" fill="none" fill-rule="evenodd">
        <g id="10.conf详情页-无说明-无最近运行" transform="translate(-244.000000, -313.000000)" fill-rule="nonzero">
            <g id="Group-5" transform="translate(220.000000, 262.000000)">
                <g id="箭头" transform="translate(20.000000, 48.000000)">
                    <rect id="Rectangle" fill="#000000" opacity="0" x="0" y="0" width="16" height="16"></rect>
                    <path d="M9.02246875,6.33009375 C8.82639063,6.1345625 8.50854688,6.1345625 8.3125,6.33009375 C8.1164375,6.525625 8.1164375,6.84264063 8.3125,7.03817188 L10.3681094,9.085625 L5.03665625,9.085625 L5.03665625,3.5169375 C5.03665625,3.23189062 4.80414063,3 4.51832813,3 C4.23251563,3 4,3.23190625 4,3.5169375 L4,9.6025625 C4,9.88759375 4.23251563,10.1194844 4.51832813,10.1194844 L10.368125,10.1194844 L8.3125,12.1669219 C8.1164375,12.3624531 8.1164375,12.6794844 8.3125,12.875 C8.41053125,12.9727969 8.53898437,13.0216563 8.66748437,13.0216563 C8.79595312,13.0216563 8.92445313,12.9727656 9.02246875,12.8750156 L11.9514063,9.95659375 C12.0455176,9.86281088 12.0984531,9.73542399 12.0984531,9.6025625 C12.0984531,9.46970083 12.045499,9.34231742 11.9513906,9.24853125 L9.02246875,6.33009375 Z" id="Path" fill="#575757"></path>
                </g>
            </g>
        </g>
    </g>
</svg>