<?xml version="1.0" encoding="UTF-8"?>
<svg width="11px" height="12px" viewBox="0 0 11 12" version="1.1" xmlns="http://www.w3.org/2000/svg" xmlns:xlink="http://www.w3.org/1999/xlink">
    <title></title>
    <defs>
        <filter id="filter-1">
            <feColorMatrix in="SourceGraphic" type="matrix" values="0 0 0 0 0.290196 0 0 0 0 0.490196 0 0 0 0 1.000000 0 0 0 1.000000 0"></feColorMatrix>
        </filter>
    </defs>
    <g id="报告" stroke="none" stroke-width="1" fill="none" fill-rule="evenodd">
        <g id="12.按产品版本" transform="translate(-286.000000, -196.000000)">
            <g id="Group-5" transform="translate(276.000000, 116.000000)">
                <g id="Group-Copy-10" transform="translate(10.000000, 40.000000)">
                    <g id="icon_shell-copy-2" transform="translate(0.000000, 40.000000)">
                        <g id="产品" fill="#000000" fill-rule="nonzero">
                            <rect id="Rectangle" opacity="0" x="0" y="0" width="12" height="12"></rect>
                            <path d="M5.6385988,6.98886227 L1.11803398,4.20221272 C0.88296566,4.05730759 0.809873952,3.74927825 0.954779081,3.51420993 C0.996010182,3.44732392 1.05242429,3.39109655 1.11944664,3.35008744 L5.63806597,0.585270142 C5.79874681,0.486954016 6.00104723,0.48728939 6.1614012,0.58613773 L10.681966,3.37278728 C10.9170343,3.51769241 10.9901261,3.82572175 10.8452209,4.06079007 C10.8039898,4.12767608 10.7475757,4.18390345 10.6805534,4.22491256 L6.16193404,6.98972986 C6.0012532,7.08804598 5.79895278,7.08771061 5.6385988,6.98886227 Z M2.6,3.775 L5.925,5.825 L9.25,3.775 L5.9,1.75 L2.6,3.775 Z" id="Shape" fill='#4A7DFF'></path>
                            <path d="M9.25,6.075 L5.9,8.1 L2.6,6.05 L1.725,5.25 L1.1438087,5.60327314 C0.907838984,5.74670571 0.832822806,6.05427204 0.976255379,6.29024176 C1.01685522,6.35703504 1.07254928,6.41337937 1.1388668,6.45475176 L5.63946343,9.26246343 C5.79928682,9.36216976 6.00158409,9.36358781 6.16278953,9.26613179 L10.7053118,6.5199706 C10.9416267,6.37710749 11.0173844,6.06972296 10.8745212,5.83340804 C10.8340978,5.76654222 10.7785662,5.71008074 10.7123808,5.66855264 L10.125,5.3 L10.125,5.3 L9.25,6.075 Z" id="Path" fill='#4A7DFF'></path>
                            <path d="M9.225,8.35 L5.9,10.375 L2.6,8.3 L1.725,7.5 L1.11383099,7.87610401 C0.878652039,8.02082952 0.805325037,8.32880293 0.950050545,8.56398188 C0.990712199,8.63005707 1.04619241,8.68576332 1.11210172,8.72669331 L5.63816552,11.5373996 C5.79869719,11.6370905 6.00171691,11.6377623 6.16290479,11.5391359 L10.6825555,8.77368749 C10.918103,8.62956255 10.9922156,8.32177725 10.8480907,8.08622977 C10.8073088,8.01957882 10.7514736,7.9634136 10.6850641,7.92223971 L10.125,7.575 L10.125,7.575 L9.225,8.35 Z" id="Path" fill='#4A7DFF'></path>
                        </g>
                    </g>
                </g>
            </g>
        </g>
    </g>
</svg>