<?xml version="1.0" encoding="UTF-8"?>
<svg width="9px" height="9px" viewBox="0 0 16 16" version="1.1" xmlns="http://www.w3.org/2000/svg" xmlns:xlink="http://www.w3.org/1999/xlink">
    <!-- <title>icon_arrow_3_+</title> -->
    <g id="对比" stroke="none" stroke-width="1" fill="none" fill-rule="evenodd">
        <g id="14.对比结果展开" transform="translate(-397.000000, -704.000000)" fill="#000000" fill-rule="nonzero">
            <g id="Group-42" transform="translate(0.000000, 534.000000)">
                <g id="Group-41" transform="translate(0.000000, 107.000000)">
                    <g id="Group-22" transform="translate(20.000000, 1.000000)">
                        <g id="分享" transform="translate(377.000000, 62.000000)">
                            <rect id="Rectangle" opacity="0" x="0" y="0" width="16" height="16"></rect>
                            <path d="M14,2.61028125 L6.983125,9.62715625 C6.787875,9.82240625 6.47128125,9.82240625 6.27601562,9.62715625 C6.08076562,9.43189062 6.08076562,9.1153125 6.27601562,8.92004687 L13.1960625,2 L11.5,2 C11.2238594,2 11,1.77614063 11,1.5 C11,1.22385937 11.2238594,1 11.5,1 L14.5,1 C14.7761406,1 15,1.22385937 15,1.5 L15,4.5 C15,4.77614063 14.7761406,5 14.5,5 C14.2238594,5 14,4.77614063 14,4.5 L14,2.61028125 Z M14,8 L14,7.703125 C14,7.42698437 14.2238594,7.203125 14.5,7.203125 C14.7761406,7.203125 15,7.42698437 15,7.703125 L15,14.5 C15,14.7761406 14.7761406,15 14.5,15 L1.5,15 C1.22385937,15 1,14.7761406 1,14.5 L1,1.5 C1,1.22385937 1.22385937,1 1.5,1 L8.21875,1 C8.49489063,1 8.71875,1.22385937 8.71875,1.5 C8.71875,1.77614063 8.49489063,2 8.21875,2 L2.125,2 C2.05596441,2 2,2.05596441 2,2.125 L2,13.875 C2,13.9440356 2.05596441,14 2.125,14 L13.875,14 C13.9440356,14 14,13.9440356 14,13.875 L14,8 Z" id="Shape" stroke="#000000" opacity="0.65" stroke-width="0.2"></path>
                        </g>
                    </g>
                </g>
            </g>
        </g>
    </g>
</svg>