<?xml version="1.0" encoding="UTF-8"?>
<svg width="12px" height="12px" viewBox="0 0 12 12" version="1.1" xmlns="http://www.w3.org/2000/svg" xmlns:xlink="http://www.w3.org/1999/xlink">
    <title></title>
    <g id="第二阶段-2" stroke="none" stroke-width="1" fill="none" fill-rule="evenodd">
        <g id="1.内核管理列表" transform="translate(-26.000000, -128.000000)" fill="#000000" fill-rule="nonzero">
            <g id="导航:2/导航菜单:1/左侧选中一级菜单:3" transform="translate(0.000000, 50.000000)">
                <g id="编组" transform="translate(0.000000, 24.000000)">
                    <g id="管理" transform="translate(24.000000, 52.000000)">
                        <rect id="Rectangle" opacity="0" x="0" y="0" width="16" height="16"></rect>
                        <path d="M6.5,2 L3,2 C2.45,2 2,2.45 2,3 L2,6.5 C2,7.05 2.45,7.5 3,7.5 L6.5,7.5 C7.05,7.5 7.5,7.05 7.5,6.5 L7.5,3 C7.5,2.45 7.05,2 6.5,2 Z M6.5,6.5 L3,6.5 L3,3 L6.5,3 L6.5,6.5 Z M6.56914063,7 L6.56914063,6.5 L6.56914063,7 Z M13,2 L9.5,2 C8.95,2 8.5,2.45 8.5,3 L8.5,6.5 C8.5,7.05 8.95,7.5 9.5,7.5 L13,7.5 C13.55,7.5 14,7.05 14,6.5 L14,3 C14,2.45 13.55,2 13,2 Z M13,6.5 L9.5,6.5 L9.5,3 L13,3 L13,6.5 Z M6.5,8.5 L3,8.5 C2.45,8.5 2,8.95 2,9.5 L2,13 C2,13.55 2.45,14 3,14 L6.5,14 C7.05,14 7.5,13.55 7.5,13 L7.5,9.5 C7.5,8.95 7.05,8.5 6.5,8.5 Z M6.5,13 L3,13 L3,9.5 L6.5,9.5 L6.5,13 Z M6.56914063,13.5 L6.56914063,13 L6.56914063,13.5 Z M13,8.5 L9.5,8.5 C8.95,8.5 8.5,8.95 8.5,9.5 L8.5,13 C8.5,13.55 8.95,14 9.5,14 L13,14 C13.55,14 14,13.55 14,13 L14,9.5 C14,8.95 13.55,8.5 13,8.5 Z M13,13 L9.5,13 L9.5,9.5 L13,9.5 L13,13 Z" id="Shape" fill-opacity="0.85"></path>
                    </g>
                </g>
            </g>
        </g>
    </g>
</svg>