<?xml version="1.0" encoding="UTF-8"?>
<svg width="12px" height="12px" viewBox="0 0 12 12" version="1.1" xmlns="http://www.w3.org/2000/svg" xmlns:xlink="http://www.w3.org/1999/xlink">
    <title></title>
    <defs>
        <filter id="filter-1">
            <feColorMatrix in="SourceGraphic" type="matrix" values="0 0 0 0 1.000000 0 0 0 0 1.000000 0 0 0 0 1.000000 0 0 0 1.000000 0"></feColorMatrix>
        </filter>
    </defs>
    <g id="体验升级-第一阶段" stroke="none" stroke-width="1" fill="none" fill-rule="evenodd">
        <g id="1.ws系统级" transform="translate(-187.000000, -19.000000)">
            <g id="Group-11" transform="translate(185.000000, 14.000000)">
                <g id="icon_home" transform="translate(0.000000, 3.000000)" filter="url(#filter-1)">
                    <g>
                        <g id="Group" fill="#000000" fill-rule="nonzero" opacity="0">
                            <g id="首页">
                                <rect id="Rectangle" x="0" y="0" width="16" height="16"></rect>
                            </g>
                        </g>
                        <path d="M7.47304323,2.48254648 C7.79591995,2.28352496 8.20360112,2.28429865 8.52572012,2.48454422 L8.52572012,2.48454422 L13.1312012,5.34754581 C13.4247511,5.53003134 13.6032492,5.85117206 13.6032492,6.19681998 L13.6032492,6.19681998 L13.6032492,12.3533696 C13.6032492,12.9056544 13.1555339,13.3533696 12.6032492,13.3533696 L12.6032492,13.3533696 L3.34902731,13.3533696 C2.79674256,13.3533696 2.34902731,12.9056544 2.34902731,12.3533696 L2.34902731,12.3533696 L2.34902731,6.19930667 C2.34902731,5.85230822 2.52891245,5.53011346 2.82430248,5.34803476 L2.82430248,5.34803476 Z M10.7571354,10.1432292 L5.20598958,10.1432292 C5.02189467,10.1432292 4.87265625,10.2924676 4.87265625,10.4765625 C4.87265625,10.6606574 5.02189467,10.8098958 5.20598958,10.8098958 L5.20598958,10.8098958 L10.7571354,10.8098958 C10.9412303,10.8098958 11.0904687,10.6606574 11.0904687,10.4765625 C11.0904687,10.2924676 10.9412303,10.1432292 10.7571354,10.1432292 L10.7571354,10.1432292 Z" id="Combined-Shape" fill="#FFFFFF"></path>
                    </g>
                </g>
            </g>
        </g>
    </g>
</svg>