<?xml version="1.0" encoding="UTF-8"?>
<svg width="48px" height="48px" viewBox="0 0 48 48" version="1.1" xmlns="http://www.w3.org/2000/svg" xmlns:xlink="http://www.w3.org/1999/xlink">
    <title></title>
    <g id="dashboard" stroke="none" stroke-width="1" fill="none" fill-rule="evenodd">
        <g id="Artboard" transform="translate(-1500.000000, -1132.000000)" fill-rule="nonzero">
            <g id="Group-11" transform="translate(1500.000000, 1132.000000)">
                <rect id="Rectangle" fill-opacity="0.1" fill="#F3615E" x="0" y="0" width="48" height="48" rx="24"></rect>
                <g id="产品" transform="translate(12.000000, 12.000000)">
                    <rect id="Rectangle" fill="#000000" opacity="0" x="0" y="0" width="24" height="24"></rect>
                    <path d="M11.4078982,14.0582934 L1.88955097,8.19081908 C1.53694849,7.97346139 1.42731093,7.51141738 1.64466862,7.1588149 C1.70651528,7.05848588 1.79113644,6.97414483 1.89166996,6.91263116 L11.407099,1.09040521 C11.6481202,0.942931025 11.9515708,0.943434087 12.1921018,1.0917066 L21.710449,6.95918092 C22.0630515,7.17653861 22.1726891,7.63858262 21.9553314,7.9911851 C21.8934847,8.09151412 21.8088636,8.17585517 21.7083301,8.23736884 L12.1929011,14.0595948 C11.9518798,14.207069 11.6484292,14.2065659 11.4078982,14.0582934 Z M5.20000001,7.54999999 L11.85,11.65 L18.5,7.54999999 L11.8,3.49999999 L5.20000001,7.54999999 Z" id="Shape" fill="#F3615E"></path>
                    <path d="M18.5,12.15 L11.8,16.2 L5.20000001,12.1 L3.45,10.5 L1.94071305,11.4174097 C1.58675848,11.6325586 1.47423421,12.0939081 1.68938307,12.4478626 C1.75028282,12.5480526 1.83382392,12.632569 1.93330021,12.6946276 L11.4091952,18.6061951 C11.6489302,18.7557546 11.9523761,18.7578817 12.1941843,18.6116977 L21.7579677,12.8299559 C22.1124401,12.6156612 22.2260765,12.1545844 22.0117819,11.8001121 C21.9511467,11.6998133 21.8678493,11.6151211 21.7685711,11.552829 L20.25,10.6 L20.25,10.6 L18.5,12.15 Z" id="Path" fill="#F3615E"></path>
                    <path d="M18.45,16.7 L11.8,20.75 L5.20000001,16.6 L3.45,15 L1.88324648,15.964156 C1.53047806,16.1812443 1.42048756,16.6432044 1.63757582,16.9959728 C1.6985683,17.0950856 1.78178862,17.178645 1.88065258,17.24004 L11.4072483,23.1560994 C11.6480458,23.3056357 11.9525754,23.3066434 12.1943572,23.1587038 L21.7113333,17.3355312 C22.0646545,17.1193438 22.1758234,16.6576659 21.959636,16.3043447 C21.8984632,16.2043682 21.8147103,16.1201204 21.7150961,16.0583596 L20.25,15.15 L20.25,15.15 L18.45,16.7 Z" id="Path" fill="#F3615E"></path>
                </g>
            </g>
        </g>
    </g>
</svg>