<?xml version="1.0" encoding="UTF-8"?>
<svg width="11px" height="12px" viewBox="0 0 11 12" version="1.1" xmlns="http://www.w3.org/2000/svg" xmlns:xlink="http://www.w3.org/1999/xlink">
    <!-- <title>icon_arrow_3_+ copy</title> -->
    <g id="报告" stroke="none" stroke-width="1" fill="none" fill-rule="evenodd">
        <g id="31.自定义-完成状态" transform="translate(-22.000000, -223.000000)" fill="#ccc" fill-rule="nonzero">
            <g id="Group-19" transform="translate(0.000000, 48.000000)">
                <g id="Group-5" transform="translate(20.000000, 170.000000)">
                    <g id="编辑" transform="translate(0.000000, 3.000000)">
                        <rect id="Rectangle" opacity="0" x="0" y="0" width="16" height="16"></rect>
                        <g id="Group" transform="translate(2.000000, 2.000000)">
                            <path d="M10.9395833,4.99699511 C10.9395833,4.65949511 10.69375,4.38657844 10.3895833,4.38657844 C10.0854167,4.38657844 9.83958333,4.65949511 9.83958333,4.99699511 L9.83958333,10.0032451 C9.83958333,10.2657451 9.6875,10.7532451 9.47708333,10.7532451 L1.5375,10.7532451 C1.32708333,10.7532451 1.09583333,10.2657451 1.09583333,10.0032451 L1.09583333,2.76366177 C1.09583333,2.50116177 1.30208333,2.00949511 1.5125,2.00949511 L5.47083333,2.00949511 C5.775,2.00949511 6.02083333,1.85949511 6.02083333,1.52407844 C6.02083333,1.18657844 5.775,0.913661773 5.47083333,0.913661773 L0.96875,0.913661773 C0.435416667,0.913661773 -2.4158453e-13,1.45949511 -2.4158453e-13,2.12407844 L-2.4158453e-13,10.6344951 C-2.4158453e-13,11.3011618 0.435416667,11.8449118 0.96875,11.8449118 L9.96666667,11.8449118 C10.5,11.8449118 10.9354167,11.2990784 10.9354167,10.6344951 L10.9354167,5.06991177 C10.9395833,5.04699511 10.9395833,5.02199511 10.9395833,4.99699511 Z" id="Path"></path>
                            <path d="M4.90416667,5.29491177 L2.7375,5.29491177 C2.43541667,5.29491177 2.1875,5.04699511 2.1875,4.74491177 C2.1875,4.44282844 2.43541667,4.19491177 2.7375,4.19491177 L4.90416667,4.19491177 C5.20625,4.19491177 5.4541797,4.44282844 5.4541797,4.74491177 C5.45625,5.04699511 5.20833333,5.29491177 4.90416667,5.29491177 Z M8.20416667,8.56991177 L2.72083333,8.56991177 C2.42083333,8.56991177 2.175,8.32407844 2.175,8.02407844 C2.175,7.72407844 2.42083333,7.47824511 2.72083333,7.47824511 L8.20208333,7.47824511 C8.50208333,7.47824511 8.74792981,7.72407844 8.74792981,8.02407844 C8.75,8.32407844 8.50416667,8.56991177 8.20416667,8.56991177 L8.20416667,8.56991177 Z M6.49166667,5.38657844 C6.25,5.20741177 6.2,4.86366177 6.37916667,4.62199511 L9.65416667,0.219911773 C9.83333333,-0.0217548933 10.1770833,-0.0717548933 10.41875,0.107411773 C10.6604167,0.28657844 10.7104167,0.63032844 10.53125,0.871995107 L7.25625,5.27407844 C7.07708333,5.51574511 6.73333333,5.56574511 6.49166667,5.38657844 L6.49166667,5.38657844 Z" id="Shape"></path>
                        </g>
                    </g>
                </g>
            </g>
        </g>
    </g>
</svg>