<?xml version="1.0" encoding="UTF-8"?>
<svg width="14px" height="12px" viewBox="0 0 14 12" version="1.1" xmlns="http://www.w3.org/2000/svg" xmlns:xlink="http://www.w3.org/1999/xlink">
    <title></title>
    <g id="体验升级-第一阶段" stroke="none" stroke-width="1" fill="none" fill-rule="evenodd">
        <g id="3.切换ws下拉" transform="translate(-657.000000, -19.000000)" fill="#FFFFFF" fill-rule="nonzero">
            <g id="分组-2" transform="translate(324.000000, 14.000000)">
                <g id="Group-20" transform="translate(332.000000, 0.000000)">
                    <g id="Group" transform="translate(0.000000, 3.000000)">
                        <g id="Combined-Shape" transform="translate(1.000000, 2.000000)">
                            <path d="M13,0 C13.5522847,0 14,0.44771525 14,1 L14,11 C14,11.5522847 13.5522847,12 13,12 L1,12 C0.44771525,12 0,11.5522847 0,11 L0,1 C0,0.44771525 0.44771525,0 1,0 L13,0 Z M13,1 L1,1 L1,11 L13,11 L13,1 Z M12.0652422,3.67311243 C12.2257178,3.8588492 12.2253455,4.12896267 12.0765266,4.31349035 L12.0137853,4.37834444 L8.23274694,7.64514132 C8.05873713,7.79548486 7.80887292,7.80549885 7.62514026,7.68064764 L7.55086051,7.61889886 L5.086,5.134 L2.34001247,7.68093694 C2.16004399,7.84785578 1.89008505,7.85699892 1.70042951,7.71477268 L1.63340551,7.65435492 C1.46648666,7.47438643 1.45734352,7.20442749 1.59956976,7.01477196 L1.65998753,6.94774796 L4.76064517,4.07192114 C4.93361898,3.91148978 5.19063797,3.89634441 5.37938762,4.02330893 L5.45565651,4.08641364 L7.931,6.583 L11.3600102,3.62165556 C11.5689641,3.44112054 11.8847072,3.46415857 12.0652422,3.67311243 Z"></path>
                        </g>
                    </g>
                </g>
            </g>
        </g>
    </g>
</svg>