<?xml version="1.0" encoding="UTF-8"?>
<svg width="12px" height="12px" viewBox="0 0 12 12" version="1.1" xmlns="http://www.w3.org/2000/svg" xmlns:xlink="http://www.w3.org/1999/xlink">
    <title></title>
    <defs>
        <filter id="filter-1">
            <feColorMatrix in="SourceGraphic" type="matrix" values="0 0 0 0 1.000000 0 0 0 0 1.000000 0 0 0 0 1.000000 0 0 0 1.000000 0"></feColorMatrix>
        </filter>
    </defs>
    <g id="体验升级-第一阶段" stroke="none" stroke-width="1" fill="none" fill-rule="evenodd">
        <g id="3.切换ws下拉" transform="translate(-326.000000, -19.000000)">
            <g id="分组-2" transform="translate(324.000000, 14.000000)">
                <g id="Group-3" transform="translate(0.000000, 3.000000)" filter="url(#filter-1)">
                    <g transform="translate(2.000000, 2.000000)">
                        <path d="M11,0 C11.5522847,0 12,0.44771525 12,1 L12,6 C12,9.3137085 9.3137085,12 6,12 L1,12 C0.44771525,12 0,11.5522847 0,11 L0,1 C0,0.44771525 0.44771525,0 1,0 L11,0 Z M11,1 L1,1 L1,11 L6,11 C8.6887547,11 10.8818181,8.87769329 10.9953805,6.21688962 L11,6 L11,1 Z M5.5,3 C5.77614237,3 6,3.22385763 6,3.5 L6,4.999 L7.5,5 C7.77614237,5 8,5.22385763 8,5.5 C8,5.77614237 7.77614237,6 7.5,6 L6,6 L6,7.5 C6,7.77614237 5.77614237,8 5.5,8 C5.22385763,8 5,7.77614237 5,7.5 L5,6 L3.5,6 C3.22385763,6 3,5.77614237 3,5.5 C3,5.22385763 3.22385763,5 3.5,5 L5,5 L5,3.5 C5,3.22385763 5.22385763,3 5.5,3 Z" id="Combined-Shape" fill="#979797" fill-rule="nonzero"></path>
                    </g>
                </g>
            </g>
        </g>
    </g>
</svg>