<?xml version="1.0" encoding="UTF-8"?>
<svg width="12px" height="12px" viewBox="0 0 12 12" version="1.1" xmlns="http://www.w3.org/2000/svg" xmlns:xlink="http://www.w3.org/1999/xlink">
    <title></title>
    <defs>
        <filter id="filter-1">
            <feColorMatrix in="SourceGraphic" type="matrix" values="0 0 0 0 1.000000 0 0 0 0 1.000000 0 0 0 0 1.000000 0 0 0 1.000000 0"></feColorMatrix>
        </filter>
    </defs>
    <g id="体验升级-第一阶段" stroke="none" stroke-width="1" fill="none" fill-rule="evenodd">
        <g id="3.切换ws下拉" transform="translate(-542.000000, -19.000000)">
            <g id="分组-2" transform="translate(324.000000, 14.000000)">
                <g id="Group-19" transform="translate(216.000000, 0.000000)">
                    <g id="Group" transform="translate(0.000000, 3.000000)" filter="url(#filter-1)">
                        <g transform="translate(2.000000, 2.000000)">
                            <path d="M6,0 C9.3137085,0 12,2.6862915 12,6 C12,9.3137085 9.3137085,12 6,12 C2.6862915,12 0,9.3137085 0,6 C0,2.6862915 2.6862915,0 6,0 Z M6,1 C3.23857625,1 1,3.23857625 1,6 C1,8.76142375 3.23857625,11 6,11 C8.76142375,11 11,8.76142375 11,6 C11,3.23857625 8.76142375,1 6,1 Z M5.5,3 L5.499,6.013 L8.29225654,6.01335671 L8.29225654,7.01335671 L4.5,7.01335671 L4.5,3 L5.5,3 Z" id="Combined-Shape" fill="#979797" fill-rule="nonzero"></path>
                        </g>
                    </g>
                </g>
            </g>
        </g>
    </g>
</svg>