<?xml version="1.0" encoding="UTF-8"?>
<svg width="16px" height="16px" viewBox="0 0 16 16" version="1.1" xmlns="http://www.w3.org/2000/svg" xmlns:xlink="http://www.w3.org/1999/xlink">
    <title></title>
    <g id="icon-user-baseline-setting-normal" stroke="none" stroke-width="1" fill="none" fill-rule="evenodd" fill-opacity="0.85">
        <g id="尺子" transform="translate(-2.000000, -2.000000)" fill="#000000" fill-rule="nonzero">
            <path d="M11.4530102,7.03269772 L11.2608227,6.84051022 L10.2733227,5.85301022 L9.90613522,5.48582272 L9.23894772,4.81863522 L8.79676022,4.37801022 L7.38426022,2.96551022 L2.96551022,7.38426022 L12.8655102,17.2842602 L17.2842602,12.8655102 L11.4530102,7.03269772 Z M7.38426022,4.07019772 L8.24363522,4.92957272 L6.58738522,6.58738522 L7.02957272,7.02957272 L8.68738522,5.37176022 L9.35457272,6.03894772 L8.24988522,7.14363522 L8.69207272,7.58582272 L9.79676022,6.48113522 L10.4592602,7.14363522 L9.35457272,8.24832272 L9.79676022,8.69051022 L10.9014477,7.58582272 L11.5639477,8.24832272 L9.90613522,9.90613522 L10.3483227,10.3483227 L12.0061352,8.69051022 L12.6686352,9.35301022 L11.5639477,10.4576977 L12.0061352,10.8998852 L13.1108227,9.79519772 L13.7733227,10.4576977 L12.6686352,11.5623852 L13.1108227,12.0045727 L14.2155102,10.8998852 L14.8780102,11.5623852 L13.2201977,13.2201977 L13.6623852,13.6623852 L15.3201977,12.0045727 L16.1795727,12.8639477 L12.8655102,16.1795727 L4.07019772,7.38426022 L7.38426022,4.07019772 Z" id="Shape" transform="translate(10.124885, 10.124885) rotate(135.000000) translate(-10.124885, -10.124885) "></path>
        </g>
    </g>
</svg>