<?xml version="1.0" encoding="UTF-8"?>
<svg width="21px" height="20px" viewBox="0 0 21 20" version="1.1" xmlns="http://www.w3.org/2000/svg" xmlns:xlink="http://www.w3.org/1999/xlink">
    <title></title>
    <defs>
        <filter id="filter-1">
            <feColorMatrix in="SourceGraphic" type="matrix" values="0 0 0 0 1.000000 0 0 0 0 1.000000 0 0 0 0 1.000000 0 0 0 1.000000 0"></feColorMatrix>
        </filter>
    </defs>
    <g id="体验升级-第一阶段" stroke="none" stroke-width="1" fill="none" fill-rule="evenodd">
        <g id="3.切换ws下拉" transform="translate(-1241.000000, -15.000000)">
            <g id="Group-23" transform="translate(-1.000000, 0.000000)">
                <g id="icon_ws_setting" transform="translate(1241.000000, 13.000000)" filter="url(#filter-1)">
                    <g id="设置" fill="#000000" fill-rule="nonzero">
                        <rect id="Rectangle" opacity="0" x="0" y="0" width="24" height="24"></rect>
                        <path d="M21.5742187,10.2164062 C21.3960937,9.271875 20.728125,8.65078125 19.9382812,8.66484375 L19.8585937,8.66484375 C19.0007812,8.66484375 18.3046875,7.96875 18.3046875,7.1109375 C18.3046875,6.928125 18.3890625,6.66328125 18.4453125,6.52734375 C18.80625,5.7046875 18.5226562,4.696875 17.7679688,4.16953125 L15.3773437,2.8359375 L15.2789062,2.7890625 C14.5359375,2.46796875 13.575,2.6625 13.0195312,3.2390625 C12.665625,3.6046875 12.0304687,4.02890625 11.7398438,4.02890625 C11.446875,4.02890625 10.8070312,3.5953125 10.453125,3.225 C9.9,2.64140625 8.9953125,2.41875 8.1703125,2.76796875 L5.7,4.1203125 L5.6015625,4.18359375 C4.85859375,4.69921875 4.575,5.7140625 4.93828125,6.5296875 C4.9828125,6.6375 5.07890625,6.92109375 5.07890625,7.11328125 C5.07890625,7.97109375 4.3828125,8.6671875 3.525,8.6671875 L3.4640625,8.6671875 C2.64609375,8.653125 1.98515625,9.271875 1.80703125,10.21875 C1.7859375,10.33125 1.5984375,11.3484375 1.5984375,12.1875 C1.5984375,13.0265625 1.7859375,14.04375 1.80703125,14.15625 C1.9828125,15.084375 2.634375,15.7078125 3.42890625,15.7078125 L3.525,15.7078125 C4.3828125,15.7078125 5.07890625,16.4039062 5.07890625,17.2617187 C5.07890625,17.4539062 4.98515625,17.7375 4.94296875,17.8359375 C4.57734375,18.6609375 4.85859375,19.6734375 5.6203125,20.2078125 L7.959375,21.5203125 L8.05546875,21.5671875 C8.3015625,21.675 8.56640625,21.7289062 8.84296875,21.7289062 C9.4171875,21.7289062 9.96328125,21.496875 10.3359375,21.0890625 C10.6828125,20.7117187 11.3554688,20.25 11.64375,20.25 C11.94375,20.25 12.6,20.7117187 12.9585938,21.1054687 C13.3289063,21.5132812 13.8914062,21.7570312 14.4632813,21.7570312 C14.7351563,21.7570312 14.9929688,21.7054687 15.2671875,21.5859375 L17.6859375,20.2523437 L17.784375,20.1890625 C18.525,19.6734375 18.8085938,18.6609375 18.4429688,17.8359375 C18.3984375,17.728125 18.3046875,17.4492187 18.3046875,17.259375 C18.3046875,16.4015625 19.0007813,15.7054687 19.8585938,15.7054687 L19.9523438,15.7054687 C20.7492188,15.7054687 21.3984375,15.0867187 21.5742188,14.1609375 C21.5765625,14.1492187 21.7851563,13.0757812 21.7851563,12.1828125 C21.7828125,11.3414062 21.5953125,10.3289062 21.5742188,10.2164062 L21.5742187,10.2164062 Z M19.903125,13.8398438 C19.8890625,13.9171875 19.8679687,13.9710938 19.8515625,14.00625 C18.0609375,14.0085938 16.603125,15.46875 16.603125,17.259375 C16.603125,17.7984375 16.8,18.3304688 16.8867188,18.5226563 C16.9242188,18.6046875 16.8960937,18.7195313 16.809375,18.7921875 L14.55,20.0414063 C14.4398438,20.0789063 14.2710938,20.0203125 14.2148438,19.959375 C14.0835938,19.8140625 12.890625,18.5460938 11.6414063,18.5460938 C10.3757813,18.5460938 9.1359375,19.8773438 9.084375,19.9335938 C9.0328125,19.9898438 8.9109375,20.0671875 8.7421875,20.00625 L6.56015625,18.7851563 C6.4875,18.7265625 6.4546875,18.6046875 6.49453125,18.5132813 C6.52265625,18.4476563 6.77578125,17.8546875 6.77578125,17.2546875 C6.77578125,15.4617188 5.3203125,14.0039063 3.52734375,14.0015625 C3.5109375,13.9664063 3.48984375,13.9125 3.4734375,13.8351563 C3.46640625,13.7976563 3.2953125,12.8765625 3.2953125,12.1804687 C3.2953125,11.484375 3.46640625,10.5632812 3.4734375,10.5257813 C3.4875,10.4484375 3.50859375,10.3921875 3.52734375,10.359375 C5.31796875,10.3570312 6.77578125,8.89921875 6.77578125,7.10625 C6.77578125,6.5203125 6.54375,5.95546875 6.4921875,5.840625 C6.45703125,5.75859375 6.4828125,5.64609375 6.5671875,5.5734375 L8.86875,4.31015625 C8.98125,4.2703125 9.16171875,4.32890625 9.2203125,4.38984375 C9.34921875,4.52578125 10.5257813,5.72109375 11.7375,5.72109375 C12.9375,5.72109375 14.109375,4.54921875 14.2382813,4.41328125 C14.2945313,4.35703125 14.4328125,4.28203125 14.5921875,4.340625 L16.8164063,5.57578125 C16.8914063,5.634375 16.921875,5.75625 16.884375,5.840625 L16.8679688,5.8828125 C16.7953125,6.0609375 16.603125,6.58125 16.603125,7.10625 C16.603125,8.89921875 18.0585938,10.3570312 19.8515625,10.359375 C19.8679688,10.3945312 19.8890625,10.4484375 19.9054688,10.5257813 C19.9078125,10.5351562 20.0835938,11.4773438 20.0835938,12.1804687 C20.08125,12.7804688 19.95,13.5960937 19.903125,13.8398438 Z M11.6882812,8.34140625 C9.571875,8.34140625 7.84921875,10.0640625 7.84921875,12.1804687 C7.84921875,14.296875 9.571875,16.0195312 11.6882812,16.0195312 C13.8046875,16.0195312 15.5273437,14.296875 15.5273437,12.1804687 C15.5273437,10.0617188 13.8046875,8.34140625 11.6882812,8.34140625 Z M11.6882812,14.7421875 C10.275,14.7421875 9.12421875,13.5914062 9.12421875,12.178125 C9.12421875,10.7648437 10.275,9.6140625 11.6882812,9.6140625 C13.1015625,9.6140625 14.2523437,10.7648437 14.2523437,12.178125 C14.2523437,13.5914062 13.1015625,14.7421875 11.6882812,14.7421875 L11.6882812,14.7421875 Z" id="Shape"></path>
                    </g>
                </g>
            </g>
        </g>
    </g>
</svg>