<?xml version="1.0" encoding="UTF-8"?>
<svg width="14px" height="14px" viewBox="0 0 14 14" version="1.1" xmlns="http://www.w3.org/2000/svg" xmlns:xlink="http://www.w3.org/1999/xlink">
    <title></title>
    <g id="第二阶段-2" stroke="none" stroke-width="1" fill="none" fill-rule="evenodd" fill-opacity="0.850000024">
        <g id="1.内核管理列表" transform="translate(-25.000000, -87.000000)" fill="#000000" fill-rule="nonzero">
            <g id="导航:2/导航菜单:1/左侧选中一级菜单:3" transform="translate(0.000000, 50.000000)">
                <g id="编组" transform="translate(0.000000, 24.000000)">
                    <g id="审批" transform="translate(24.000000, 12.000000)">
                        <rect id="Rectangle" opacity="0" x="0" y="0" width="16" height="16"></rect>
                        <path d="M11.35,5.74546875 C12.4698437,5.74546875 13.3870312,6.66265625 13.3870312,7.78265625 C13.3870312,8.48838177 13.0291498,9.10739621 12.487475,9.47262084 C12.4589612,9.68556879 12.232994,11.4727702 13.5135229,11.9924696 L14.371875,11.9921875 C14.6132812,11.9921875 14.80625,12.1853125 14.80625,12.4267187 L14.80625,14.550625 C14.8160937,14.7920312 14.6132812,14.9851601 14.3720312,14.9851601 L8.328125,14.9851601 C8.21273234,14.9856406 8.10192597,14.9400153 8.02033033,14.8584197 C7.93873468,14.776824 7.89310939,14.6660177 7.89358993,14.550625 L7.89358993,12.4267187 C7.89358993,12.1853125 8.0865625,11.9921875 8.328125,11.9921875 L9.27258617,11.9914687 L9.29255847,11.9849533 C10.4820605,11.4887293 10.3592385,9.90035626 10.3095637,9.52850931 C9.71332083,9.17419788 9.3128125,8.5227006 9.3128125,7.78265625 C9.3128125,6.6628125 10.23,5.74546875 11.35,5.74546875 Z M10.6645312,1.00515625 C11.3210937,1.00515625 11.8617187,1.54578125 11.8617187,2.20234375 L11.8617187,4.33609375 C11.8617187,4.60640625 11.6395312,4.8284375 11.3692187,4.8284375 C11.0989062,4.8284375 10.876875,4.60640625 10.876875,4.33609375 L10.876875,2.20234375 C10.876875,2.0865625 10.7803125,1.99 10.6645312,1.99 L2.39046875,1.99 C2.27453125,1.99 2.178125,2.0865625 2.178125,2.20234375 L2.178125,13.5079687 C2.178125,13.6239062 2.2746875,13.7203125 2.39046875,13.7203125 L6.44546875,13.7203125 C6.5709375,13.7203125 6.69640625,13.7782812 6.78328125,13.8748437 C6.87015625,13.9714062 6.91859375,14.0970312 6.91859375,14.2223437 C6.90890625,14.4829687 6.70609375,14.6954687 6.43578125,14.7051562 L2.39046875,14.7051562 C1.73390625,14.7051562 1.19328125,14.1645312 1.19328125,13.5079687 L1.19328125,2.20234375 C1.19328125,1.5459375 1.73390625,1.00515625 2.39046875,1.00515625 L10.6645312,1.00515625 Z M13.9375,12.8707813 L8.7625,12.8707813 L8.7625,14.11625 L13.9375,14.11625 L13.9375,12.8707813 Z M11.6302996,9.79967188 L11.5014021,9.81428311 C11.4513988,9.81796875 11.4009091,9.81984375 11.35,9.81984375 C11.2847498,9.81984375 11.2201871,9.81672983 11.1564533,9.81064332 C11.1812236,10.476729 11.0558577,11.3390678 10.5690972,11.9928941 L12.2172895,11.9922446 C11.7287667,11.3355457 11.6045479,10.4686871 11.6302996,9.79967188 Z M11.35,6.62421875 C10.7128125,6.62421875 10.1914062,7.14546875 10.1914062,7.7828125 C10.1914062,8.42015625 10.7128125,8.94140625 11.35,8.94140625 C11.9871875,8.94140625 12.5085937,8.42015625 12.5085937,7.7828125 C12.5085937,7.14546875 11.9871875,6.62421875 11.35,6.62421875 Z M5.6634375,7.9371875 C5.90484375,7.9371875 6.0978125,8.1303125 6.0978125,8.38125 C6.0978125,8.62265625 5.90484375,8.82546875 5.6634375,8.82546875 L3.56828125,8.82546875 C3.326875,8.82546875 3.13375,8.63234375 3.13375,8.38125 C3.13375,8.13984375 3.326875,7.946875 3.56828125,7.9371875 L5.6634375,7.9371875 Z M6.79296875,5.71671875 C7.034375,5.71671875 7.2275,5.90984375 7.2275,6.15109375 C7.2275,6.3925 7.034375,6.58562882 6.79296875,6.58562882 L3.56828125,6.58562882 C3.45288859,6.58610936 3.34208222,6.54048407 3.26048658,6.45888842 C3.17889093,6.37729278 3.13326564,6.26648641 3.13374618,6.15109375 C3.13374618,5.90984375 3.326875,5.71671875 3.56828125,5.71671875 L6.79296875,5.71671875 Z M8.53078125,3.48624657 C8.77203125,3.48624657 8.96515625,3.679375 8.96515625,3.92078125 C8.96515625,4.1621875 8.77203125,4.35531632 8.53078125,4.35531632 L3.56828125,4.35531632 C3.45288859,4.35579686 3.34208222,4.31017157 3.26048658,4.22857592 C3.17889093,4.14698028 3.13326564,4.03617391 3.13374618,3.92078125 C3.13329088,3.80539626 3.17892426,3.69460458 3.26051442,3.61301442 C3.34210458,3.53142426 3.45289626,3.48579088 3.56828125,3.48624657 L8.53078125,3.48624657 Z" id="Combined-Shape"></path>
                    </g>
                </g>
            </g>
        </g>
    </g>
</svg>