<?xml version="1.0" encoding="UTF-8"?>
<svg width="16px" height="16px" viewBox="0 0 16 16" version="1.1" xmlns="http://www.w3.org/2000/svg" xmlns:xlink="http://www.w3.org/1999/xlink">
    <title></title>
    <g id="icon_Operation" stroke="none" stroke-width="1" fill="none" fill-rule="evenodd" fill-opacity="0.850000024">
        <g id="维护" fill="#000000" fill-rule="nonzero">
            <rect id="Rectangle" opacity="0" x="0" y="0" width="16" height="16"></rect>
            <path d="M10.5429687,9.00984375 C12.100625,9.00984375 13.3632812,10.2725 13.3632812,11.8301563 C13.3632812,12.2965625 13.2501562,12.7364063 13.0496875,13.1239063 L13.0496875,13.1239063 L13.8515625,13.9259375 C14.1615625,14.2357813 14.1615625,14.7429688 13.8515625,15.0528125 C13.6967187,15.2078125 13.4923437,15.2853125 13.288125,15.2853125 C13.0839062,15.2853125 12.8795312,15.2078125 12.7246875,15.0528125 L12.7246875,15.0528125 L11.9478125,14.2760938 C11.5342187,14.5142188 11.0545312,14.6503125 10.5429687,14.6503125 C8.9853125,14.6503125 7.7228125,13.3878125 7.7228125,11.8301563 C7.7228125,11.3910938 7.823125,10.975625 8.001875,10.6054688 L8.001875,10.6054688 L9.90421875,12.5076563 L10.9539062,12.1551563 L11.23,11.1817188 L9.33109375,9.2828125 C9.698125,9.1078125 10.1090625,9.00984375 10.5429687,9.00984375 Z M12.2615625,0.7146875 C12.608125,0.7146875 12.8890625,1.01578125 12.8889063,1.38703125 L12.8845312,7.775625 C12.8842187,8.14671875 12.6032812,8.44734375 12.2567187,8.44703125 C11.9103125,8.44671875 11.6295312,8.14578125 11.6298437,7.7746875 L11.63375,2.0584375 L3.170625,2.0584375 L3.170625,13.3396875 L6.38890625,13.3396875 C6.7353125,13.3396875 7.01625,13.6404687 7.01625,14.0115625 C7.01625,14.3826562 6.7353125,14.6834375 6.38890625,14.6834375 L2.54328125,14.6834375 C2.196875,14.6834375 1.9159375,14.3826562 1.9159375,14.0115625 L1.9159375,1.3865625 C1.9159375,1.01546875 2.196875,0.7146875 2.54328125,0.7146875 L12.2615625,0.7146875 Z M8.48703125,7.32609375 C8.858125,7.32609375 9.15890625,7.626875 9.15890625,7.99796875 C9.15890625,8.3690625 8.858125,8.66984375 8.48703125,8.66984375 L8.48703125,8.66984375 L5.31515625,8.66984375 C4.9440625,8.66984375 4.64328125,8.3690625 4.64328125,7.99796875 C4.64328125,7.626875 4.9440625,7.32609375 5.31515625,7.32609375 L5.31515625,7.32609375 Z M9.98703125,4.42765625 C10.358125,4.42765625 10.6589062,4.7284375 10.6589062,5.09953125 C10.6589062,5.470625 10.358125,5.77140625 9.98703125,5.77140625 L9.98703125,5.77140625 L5.26828125,5.77140625 C4.8971875,5.77140625 4.59640625,5.470625 4.59640625,5.09953125 C4.59640625,4.7284375 4.8971875,4.42765625 5.26828125,4.42765625 L5.26828125,4.42765625 Z" id="Combined-Shape"></path>
        </g>
    </g>
</svg>