<?xml version="1.0" encoding="UTF-8"?>
<svg width="10px" height="10px" viewBox="0 0 10 10" version="1.1" xmlns="http://www.w3.org/2000/svg" xmlns:xlink="http://www.w3.org/1999/xlink">
    <title></title>
    <defs>
        <filter id="filter-1">
            <feColorMatrix in="SourceGraphic" type="matrix" values="0 0 0 0 1.000000 0 0 0 0 0.509804 0 0 0 0 0.180392 0 0 0 1.000000 0"></feColorMatrix>
        </filter>
    </defs>
    <g id="报告" stroke="none" stroke-width="1" fill="none" fill-rule="evenodd">
        <g id="12.按产品版本" transform="translate(-359.000000, -197.000000)">
            <g id="Group-5" transform="translate(276.000000, 116.000000)">
                <g id="Group-Copy-10" transform="translate(10.000000, 40.000000)">
                    <g id="icon_shell-copy" transform="translate(72.000000, 40.000000)">
                        <g id="网盘" fill="#000000" fill-rule="nonzero">
                            <rect id="Rectangle" opacity="0" x="0" y="0" width="12" height="12"></rect>
                            <path d="M10.4309411,8.7539 L9.33670178,2.23111667 C9.27738214,1.82681667 8.95124464,1.51693334 8.55039108,1.5 L3.45054108,1.5 C3.04311428,1.51725 2.71101428,1.83658333 2.65984286,2.25065 L1.56905892,8.75423334 C1.52793214,8.88476667 1.5,9.02181667 1.5,9.16666667 C1.5,9.903 2.07567858,10.5 2.78571428,10.5 L9.21428571,10.5 C9.92432142,10.5 10.5,9.903 10.5,9.16666667 C10.5,9.02148333 10.4720679,8.88476667 10.4309411,8.7539 Z M3.32655,2.16666667 L8.67343392,2.16666667 L9.63739821,7.91308333 C9.50432678,7.86491667 9.36338036,7.83333334 9.21428572,7.83333334 L2.78571428,7.83333334 C2.63661964,7.83333334 2.49567321,7.86491667 2.36258571,7.91308333 L3.32655,2.16666667 Z M9.21428572,9.83333333 L2.78571428,9.83333333 C2.43132321,9.83333333 2.14285714,9.53418333 2.14285714,9.16666667 C2.14285714,8.79915001 2.43132322,8.5 2.78571428,8.5 L9.21428571,8.5 C9.56867678,8.5 9.85714285,8.79915001 9.85714285,9.16666667 C9.85714285,9.53418333 9.56867678,9.83333333 9.21428572,9.83333333 Z M5.03571428,6.16666667 L6.96428571,6.16666667 C7.31930357,6.16666667 7.60714285,5.86816667 7.60714285,5.5 C7.60714285,5.13183333 7.31930357,4.83333333 6.96428571,4.83333333 C6.96428571,4.28125 6.53268749,3.83333333 5.99999999,3.83333333 C5.46731249,3.83333333 5.03571427,4.28125 5.03571427,4.83333333 C4.68069642,4.83333333 4.39285713,5.13183333 4.39285713,5.5 C4.39285713,5.86816667 4.68069642,6.16666667 5.03571428,6.16666667 Z M8.89285714,8.83333334 C8.7151875,8.83333334 8.57142857,8.98241667 8.57142857,9.16666668 C8.57142857,9.35091669 8.71518749,9.50000002 8.89285714,9.50000002 C9.07052679,9.50000002 9.21428572,9.35091669 9.21428572,9.16666668 C9.21428572,8.98241667 9.07052678,8.83333334 8.89285714,8.83333334 Z" id="Shape" stroke="#FF822E" stroke-width="0.2" fill='#FF822E'></path>
                        </g>
                    </g>
                </g>
            </g>
        </g>
    </g>
</svg>