<?xml version="1.0" encoding="UTF-8"?>
<svg width="12px" height="12px" viewBox="0 0 12 12" version="1.1" xmlns="http://www.w3.org/2000/svg" xmlns:xlink="http://www.w3.org/1999/xlink">
    <title></title>
    <g id="第二阶段-2" stroke="none" stroke-width="1" fill="none" fill-rule="evenodd">
        <g id="1.内核管理列表" transform="translate(-26.000000, -168.000000)" fill="#000000" fill-rule="nonzero">
            <g id="导航:2/导航菜单:1/左侧选中一级菜单:3" transform="translate(0.000000, 50.000000)">
                <g id="编组" transform="translate(0.000000, 24.000000)">
                    <g transform="translate(24.000000, 80.000000)" id="Group">
                        <g transform="translate(0.000000, 12.000000)">
                            <g id="用户" transform="translate(2.000000, 2.000000)">
                                <rect id="Rectangle" opacity="0" x="0" y="0" width="12" height="12"></rect>
                                <path d="M6.00012592,11.9775272 C2.69150916,11.9775272 0.00926371875,9.29628912 0.00926371875,5.98882357 C0.00926371875,2.68123812 2.69150916,0 6.00012592,0 C9.30847886,0 11.9907363,2.68123812 11.9907363,5.98882358 C11.9907363,9.29631311 9.30846686,11.9775272 6.00012592,11.9775272 Z M6.00012592,1.12296663 C3.31201645,1.12296663 1.13249418,3.30130172 1.13249418,5.98883557 C1.13249418,7.24540362 1.61321225,8.38713752 2.39580165,9.25062409 C3.10057582,8.90969523 2.84185123,9.19338689 3.76422986,8.81380823 C4.70804994,8.42603914 4.93154242,8.29068691 4.93154242,8.29068691 L4.94064424,7.3966091 C4.94064424,7.3966091 4.58709995,7.12836298 4.47724243,6.28703739 C4.25581256,6.35063027 4.18299793,6.02935609 4.1697709,5.82497866 C4.15803086,5.62736464 4.04172171,5.01067077 4.31163471,5.06631304 C4.25638816,4.65446427 4.21677902,4.28298014 4.2364337,4.08622954 C4.30397191,3.39554582 4.97440136,2.6738991 6.00720111,2.62118284 C7.22202546,2.67375519 7.70334313,3.39495821 7.77088134,4.08565393 C7.790572,4.28253645 7.74711346,4.65415249 7.69190289,5.06528175 C7.96173195,5.01035899 7.84458337,5.62615348 7.83136833,5.82379148 C7.8193165,6.02816892 7.74471507,6.34827988 7.52423257,6.2848309 C7.41382343,7.1261325 7.06024316,7.39223208 7.06024316,7.39223208 L7.06874539,8.28196883 C7.06874539,8.28196883 7.29222587,8.40839911 8.23604597,8.79633609 C9.15841261,9.17587876 8.89938823,8.90895175 9.60451015,9.25062409 C10.3867638,8.38711355 10.8674699,7.24552355 10.8674699,5.98883558 C10.8674699,3.30131371 8.68825936,1.12296663 6.00012592,1.12296663 Z" id="Shape" fill-opacity="0.85"></path>
                            </g>
                        </g>
                    </g>
                </g>
            </g>
        </g>
    </g>
</svg>