<?xml version="1.0" encoding="UTF-8"?>
<svg width="12px" height="12px" viewBox="0 0 12 12" version="1.1" xmlns="http://www.w3.org/2000/svg" xmlns:xlink="http://www.w3.org/1999/xlink">
    <title></title>
    <g id="体验升级-第一阶段" stroke="none" stroke-width="1" fill="none" fill-rule="evenodd">
        <g id="1.ws系统级" transform="translate(-259.000000, -19.000000)" fill-rule="nonzero">
            <g id="Group-11" transform="translate(185.000000, 14.000000)">
                <g id="Group-3" transform="translate(72.000000, 0.000000)">
                    <g id="分析图表" transform="translate(0.000000, 3.000000)">
                        <rect id="Rectangle" fill="#000000" opacity="0" x="0" y="0" width="16" height="16"></rect>
                        <path d="M7.26666667,13.6666667 C4.53333334,13.6666667 2.3,11.4333333 2.3,8.66666667 C2.3,5.86666667 4.5,3.66666667 7.33333333,3.66666667 C7.53333333,3.66666667 7.66666666,3.8 7.66666667,4 L7.66666667,8.3 L11.9666667,8.33333333 C12.1333333,8.33333333 12.3,8.46666666 12.3,8.66666667 C12.3,11.4333333 10.0666667,13.6666667 7.26666667,13.6666667 Z" id="Shape" fill="#FFFFFF"></path>
                        <path d="M13.6666667,8 L8.33333333,7.96666667 C8.13333333,7.96666667 8,7.8 8,7.63333333 L8.03333333,2.33333333 C8.03333333,2.13333333 8.16666666,2 8.36666667,2 C11.4666667,2 14,4.53333333 14,7.66666667 C14,7.76666667 13.9666667,7.83333334 13.9,7.9 C13.8333333,7.96666667 13.7666667,8 13.6666667,8 L13.6666667,8 Z" id="Shape" fill="#FFFFFF"></path>
                    </g>
                </g>
            </g>
        </g>
    </g>
</svg>