<?xml version="1.0" encoding="UTF-8"?>
<svg width="24px" height="24px" viewBox="0 0 24 24" version="1.1" xmlns="http://www.w3.org/2000/svg" xmlns:xlink="http://www.w3.org/1999/xlink">
    <title></title>
    <g id="创建计划" stroke="none" stroke-width="1" fill="none" fill-rule="evenodd">
        <g id="不在运行" fill="#CECECE">
            <path d="M11.8405316,0 C15.3289037,0.0897009787 18.2093023,1.26578072 20.4717608,3.5282392 C22.7342193,5.79069767 23.910299,8.67109634 24,12.1594684 C23.910299,15.4883721 22.7342193,18.269103 20.4717608,20.5116279 C18.2093023,22.7541528 15.3289037,23.910299 11.8405316,24 C8.51162792,23.910299 5.730897,22.744186 3.48837209,20.5116279 C1.24584718,18.269103 0.0897010063,15.4883721 0,12.1594684 C0.0897010063,8.67109634 1.25581395,5.80066444 3.48837209,3.5282392 C5.730897,1.26578072 8.51162789,0.0897009787 11.8405316,0 Z M16.921875,11.34375 L7.078125,11.34375 C6.68979979,11.34375 6.375,11.6585498 6.375,12.046875 C6.375,12.4352002 6.68979979,12.75 7.078125,12.75 L7.078125,12.75 L16.921875,12.75 C17.3102002,12.75 17.625,12.4352002 17.625,12.046875 C17.625,11.6585498 17.3102002,11.34375 16.921875,11.34375 L16.921875,11.34375 Z" id="形状结合"></path>
        </g>
    </g>
</svg>