<?xml version="1.0" encoding="UTF-8"?>
<svg width="24px" height="24px" viewBox="0 0 24 24" version="1.1" xmlns="http://www.w3.org/2000/svg" xmlns:xlink="http://www.w3.org/1999/xlink">
    <title></title>
    <g id="创建计划" stroke="none" stroke-width="1" fill="none" fill-rule="evenodd">
        <g id="pending" fill="#CECECE">
            <path d="M11.8405316,0 C15.3289037,0.0897009787 18.2093023,1.26578072 20.4717608,3.5282392 C22.7342193,5.79069767 23.910299,8.67109634 24,12.1594684 C23.910299,15.4883721 22.7342193,18.269103 20.4717608,20.5116279 C18.2093023,22.7541528 15.3289037,23.910299 11.8405316,24 C8.51162792,23.910299 5.730897,22.744186 3.48837209,20.5116279 C1.24584718,18.269103 0.0897010063,15.4883721 0,12.1594684 C0.0897010063,8.67109634 1.25581395,5.80066444 3.48837209,3.5282392 C5.730897,1.26578072 8.51162789,0.0897009787 11.8405316,0 Z M10.859375,5.4765625 C10.4710498,5.4765625 10.15625,5.79136229 10.15625,6.1796875 L10.15625,6.1796875 L10.15625,13.2109375 C10.15625,13.5992627 10.4710498,13.9140625 10.859375,13.9140625 L10.859375,13.9140625 L17.515625,13.9140625 C17.9039502,13.9140625 18.21875,13.5992627 18.21875,13.2109375 C18.21875,12.8226123 17.9039502,12.5078125 17.515625,12.5078125 L17.515625,12.5078125 L11.56225,12.5075625 L11.5625,6.1796875 C11.5625,5.79136229 11.2477002,5.4765625 10.859375,5.4765625 Z" id="形状结合"></path>
        </g>
    </g>
</svg>