<?xml version="1.0" encoding="UTF-8"?>
<svg width="35px" height="35px" viewBox="0 0 35 35" version="1.1" xmlns="http://www.w3.org/2000/svg" xmlns:xlink="http://www.w3.org/1999/xlink">
    <title>Group 5</title>
    <g id="产品、项目、代码管理" stroke="none" stroke-width="1" fill="none" fill-rule="evenodd">
        <g id="产品管理列表" transform="translate(-820.000000, -392.000000)">
            <g id="Group-2-Copy-7" transform="translate(555.000000, 392.000000)">
                <g id="Group-5" transform="translate(265.000000, 0.000000)">
                    <path d="M0,0 L31,0 C33.209139,-4.05812251e-16 35,1.790861 35,4 L35,35 L35,35 L0,0 Z" id="Rectangle-Copy-3" fill="#1890FF"></path>
                    <path d="M19.839145,16.5633112 C20.619145,15.4033112 21.169145,13.9733112 21.489145,12.2933112 C21.809145,14.0033112 22.419145,15.4233112 23.309145,16.5533112 L23.799145,16.0133112 C22.749145,14.7833112 22.069145,13.0333112 21.759145,10.7633112 L23.479145,10.7633112 L23.479145,10.0733112 L21.719145,10.0733112 C21.729145,9.0333112 21.739145,8.1333112 21.739145,7.3933112 L21.049145,7.3933112 C21.049145,8.0133112 21.039145,8.9033112 21.019145,10.0733112 L19.729145,10.0733112 L19.729145,10.7633112 L20.989145,10.7633112 C20.849145,12.7133112 20.339145,14.4433112 19.449145,15.9433112 C19.319145,15.4833112 19.139145,14.9833112 18.909145,14.4433112 L18.399145,14.5833112 C18.609145,15.1033112 18.789145,15.6333112 18.929145,16.1833112 L19.409145,16.0033112 C19.399145,16.0133112 19.389145,16.0333112 19.379145,16.0533112 L19.839145,16.5633112 Z M23.079145,9.5633112 L23.579145,9.2033112 C23.349145,8.7833112 23.019145,8.2833112 22.579145,7.7233112 L22.089145,8.0233112 C22.509145,8.5833112 22.839145,9.1033112 23.079145,9.5633112 Z M14.829145,14.2033112 C16.829145,14.1333112 18.339145,14.0433112 19.349145,13.9433112 L19.349145,13.3733112 C18.779145,13.4333112 18.119145,13.4733112 17.359145,13.5133112 L17.359145,12.6833112 L19.179145,12.6833112 L19.179145,12.1033112 L17.359145,12.1033112 L17.359145,11.2833112 L19.259145,11.2833112 L19.259145,7.7333112 L14.869145,7.7333112 L14.869145,11.2833112 L16.719145,11.2833112 L16.719145,12.1033112 L14.919145,12.1033112 L14.919145,12.6833112 L16.719145,12.6833112 L16.719145,13.5433112 C16.119145,13.5633112 15.459145,13.5833112 14.749145,13.5933112 L14.829145,14.2033112 Z M18.679145,10.7233112 L17.309145,10.7233112 L17.309145,8.2933112 L18.679145,8.2933112 L18.679145,10.7233112 Z M16.789145,10.7233112 L15.449145,10.7233112 L15.449145,8.2933112 L16.789145,8.2933112 L16.789145,10.7233112 Z M17.989145,10.3133112 C18.149145,9.8533112 18.259145,9.3833112 18.319145,8.9033112 L17.939145,8.8133112 C17.879145,9.2933112 17.769145,9.7533112 17.609145,10.1833112 L17.989145,10.3133112 Z M16.139145,10.3133112 L16.509145,10.2133112 C16.389145,9.7033112 16.259145,9.2533112 16.109145,8.8533112 L15.729145,8.9733112 C15.889145,9.4033112 16.029145,9.8533112 16.139145,10.3133112 Z M17.689145,16.3233112 L18.269145,16.1733112 C18.129145,15.5533112 17.979145,15.0133112 17.799145,14.5333112 L17.279145,14.7033112 C17.439145,15.2233112 17.579145,15.7633112 17.689145,16.3233112 Z M15.249145,16.5833112 C15.469145,16.0233112 15.599145,15.3733112 15.659145,14.6433112 L15.059145,14.5733112 C14.999145,15.2533112 14.869145,15.8633112 14.649145,16.3933112 L15.249145,16.5833112 Z M16.289145,16.4633112 L16.899145,16.3933112 C16.859145,15.6533112 16.789145,15.0633112 16.689145,14.6433112 L16.129145,14.7033112 C16.209145,15.1233112 16.269145,15.7033112 16.289145,16.4633112 Z M28.189145,16.4833112 C29.519145,15.3833112 30.369145,13.9633112 30.749145,12.2433112 C30.799145,11.9833112 30.849145,11.7233112 30.899145,11.4433112 C31.459145,13.4233112 32.269145,15.1033112 33.339145,16.4633112 L33.859145,15.8633112 C32.549145,14.3633112 31.629145,12.3233112 31.099145,9.7633112 C31.159145,9.0433112 31.189145,8.2533112 31.189145,7.4133112 L30.449145,7.4133112 C30.449145,9.3533112 30.299145,10.9433112 30.019145,12.1933112 C29.639145,13.6833112 28.859145,14.9133112 27.699145,15.8933112 L28.189145,16.4833112 Z M27.019145,9.5033112 L27.509145,9.0033112 C27.049145,8.4833112 26.479145,7.9733112 25.799145,7.4633112 L25.299145,7.9533112 C26.019145,8.4933112 26.599145,9.0133112 27.019145,9.5033112 Z M26.149145,16.0833112 C26.849145,15.6233112 27.509145,15.0933112 28.129145,14.5033112 L27.949145,13.7633112 C27.539145,14.1533112 27.149145,14.4933112 26.789145,14.7933112 L26.789145,10.4233112 L24.629145,10.4233112 L24.629145,11.1133112 L26.099145,11.1133112 L26.099145,15.0133112 C26.099145,15.1733112 26.019145,15.3233112 25.869145,15.4433112 L26.149145,16.0833112 Z" id="默认" fill="#FEFFFF" fill-rule="nonzero" transform="translate(24.254145, 11.988311) rotate(45.000000) translate(-24.254145, -11.988311) "></path>
                </g>
            </g>
        </g>
    </g>
</svg>