<?xml version="1.0" encoding="UTF-8"?>
<svg width="12px" height="12px" viewBox="0 0 12 12" version="1.1" xmlns="http://www.w3.org/2000/svg" xmlns:xlink="http://www.w3.org/1999/xlink">
    <!-- Generator: Sketch 63.1 (92452) - https://sketch.com -->
    <title></title>
    <desc>Created with Sketch.</desc>
    <g id="首页/加入" stroke="none" stroke-width="1" fill="none" fill-rule="evenodd">
        <g id="4-超级管理员-首页" transform="translate(-746.000000, -187.000000)" fill-rule="nonzero">
            <g id="编组" transform="translate(20.000000, 99.000000)">
                <g id="选项备份" transform="translate(532.000000, 56.000000)">
                    <g id="选择项">
                        <g id="公开" transform="translate(192.000000, 30.000000)">
                            <rect id="矩形" fill="#000000" opacity="0" x="0" y="0" width="16" height="16"></rect>
                            <path d="M8.14814814,3.18518519 C8.77777777,3.18518519 9.37185184,3.43259259 9.82074073,3.88296297 C10.2711111,4.33185186 10.5185185,4.92592592 10.5185185,5.55555556 L10.5185185,8.07407408 C10.5185185,8.43407408 10.437037,8.89481481 10.2903704,9.37185186 C10.1333333,9.88148148 9.90962963,10.3851852 9.64444444,10.8251852 C9.37777777,11.2681482 9.08148147,11.6251852 8.78814814,11.8607407 C8.62518517,11.9911111 8.38074073,12.1481481 8.14814814,12.1481481 L7.85185186,12.1481481 C7.61925927,12.1481481 7.37481483,11.9925926 7.21185186,11.8607407 C6.91851853,11.6251852 6.62222223,11.2681481 6.35555556,10.8251852 C6.09037038,10.3837037 5.86666667,9.88148148 5.70814814,9.37037038 C5.56148147,8.89481481 5.48,8.43407408 5.48,8.07259259 L5.48,5.55555556 C5.48,4.92592594 5.72740741,4.33185186 6.17777778,3.88296297 C6.62814816,3.43259259 7.22222222,3.18518519 7.85185186,3.18518519 L8.14814814,3.18518519 M8.14814814,2 L7.85185186,2 C5.8962963,2 4.2962963,3.6 4.2962963,5.55555556 L4.2962963,8.07407408 C4.2962963,10.0296296 5.8962963,13.3333333 7.85185186,13.3333333 L8.14814814,13.3333333 C10.1037037,13.3333333 11.7037037,10.0296296 11.7037037,8.07407408 L11.7037037,5.55555556 C11.7037037,3.6 10.1037037,2 8.14814814,2 Z M12.0785185,6 L3.92148148,6 C3.23111111,6 2.66666667,6.53333333 2.66666667,7.18518519 L2.66666667,12.8148148 C2.66666667,13.4666667 3.23111111,14 3.92148148,14 L12.0785185,14 C12.7688889,14 13.3333333,13.4666667 13.3333333,12.8148148 L13.3333333,7.18518519 C13.3333333,6.53333333 12.7688889,6 12.0785185,6 Z M8.62814814,11.2 C8.62814814,11.5274074 8.34666666,11.7925926 8,11.7925926 C7.65333334,11.7925926 7.37185186,11.5274074 7.37185186,11.2 L7.37185186,9.12592592 C7.37185186,8.79851852 7.65333334,8.53333333 8,8.53333333 C8.34666666,8.53333333 8.62814814,8.79851852 8.62814814,9.12592592 L8.62814814,11.2 Z" id="形状" fill="#1890FF"></path>
                            <polygon id="矩形" fill="#FFFFFF" points="10 5 12 4.51932905 12 6 10 6"></polygon>
                        </g>
                    </g>
                </g>
            </g>
        </g>
    </g>
</svg>