<?xml version="1.0" encoding="UTF-8"?>
<svg width="14px" height="13px" viewBox="0 0 14 13" version="1.1" xmlns="http://www.w3.org/2000/svg" xmlns:xlink="http://www.w3.org/1999/xlink">
    <title>icon_arrow_3_+ copy 2</title>
    <g id="Job列表" stroke="none" stroke-width="1" fill="none" fill-rule="evenodd">
        <g id="4.过滤展开-显示结果" transform="translate(-1156.000000, -270.000000)" fill="#000000" fill-rule="nonzero">
            <g id="Group-25" transform="translate(20.000000, 239.500000)">
                <g id="Group-Copy-8" transform="translate(20.000000, 21.000000)">
                    <g id="Group-8-Copy" transform="translate(1115.000000, 5.000000)">
                        <g id="刷新" transform="translate(0.000000, 3.000000)">
                            <rect id="Rectangle" opacity="0" x="0" y="0" width="16" height="16"></rect>
                            <path d="M14.5167526,5.46495583 L12.5250829,4.49764559 L11.5252828,6.43799017 L12.3240516,6.84921453 L12.6453212,6.22599033 C12.9200943,6.84526522 13.0719271,7.5150178 13.0719271,8.19311669 C13.0719271,10.9361954 10.7660071,13.1679258 7.93163048,13.1679258 C7.0768997,13.1679258 6.2298437,12.9607867 5.48200023,12.5675181 L5.06417236,13.3628173 C5.94018467,13.8236239 6.9316225,14.0672183 7.93163048,14.0672183 C11.2619579,14.0672183 13.9707879,11.4316985 13.9707879,8.19311669 C13.9707879,7.433825 13.8145581,6.68112084 13.5222449,5.98110084 L14.1243794,6.27339809 L14.5167526,5.46495583 Z M3.35443898,9.77354598 C3.07945797,9.15428708 2.92760923,8.4845505 2.92760922,7.80645161 C2.92760922,5.06338889 5.23354519,2.83116281 8.06772994,2.83116281 C8.92266858,2.83116281 9.76972458,3.03876564 10.5176,3.43157053 L10.9354119,2.63675102 C10.0593996,2.17546469 9.0683775,1.93276572 8.06772994,1.93276572 C4.73804213,1.93276572 2.02878042,4.56743814 2.02878042,7.80643563 C2.02878042,8.56569533 2.18525002,9.31841548 2.47753128,10.0184355 L1.87562058,9.7261702 L1.48324739,10.5350282 L3.47490106,11.501459 L4.4747012,9.56156214 L3.67593236,9.14987408 L3.35443898,9.77354598 Z" id="Shape" fill-opacity="0.85"></path>
                        </g>
                    </g>
                </g>
            </g>
        </g>
    </g>
</svg>