<?xml version="1.0" encoding="UTF-8"?>
<svg width="88px" height="88px" viewBox="0 0 88 88" version="1.1" xmlns="http://www.w3.org/2000/svg" xmlns:xlink="http://www.w3.org/1999/xlink">
    <title></title>
    <defs>
        <polygon id="path-1" points="3.57597656e-05 7.14199219e-06 42.9117187 7.14199219e-06 42.9117187 28.5679687 3.57597656e-05 28.5679687"></polygon>
    </defs>
    <g id="新建job" stroke="none" stroke-width="1" fill="none" fill-rule="evenodd">
        <g id="13-新建job-新建job类型入口" transform="translate(-2472.000000, -438.000000)">
            <g id="编组" transform="translate(2465.000000, 431.000000)">
                <g id="编组" transform="translate(7.968750, 7.968750)">
                    <g id="Fill-1" transform="translate(0.000000, 0.000000)" fill="#A3B5D6">
                        <path d="M9.60518974e-06,43.0312404 C9.60518974e-06,66.796689 19.265715,86.0624904 43.0312596,86.0624904 C66.7967082,86.0624904 86.0625096,66.796689 86.0625096,43.0312404 C86.0625096,19.2656958 66.7967082,-9.60518974e-06 43.0312596,-9.60518974e-06 C19.265715,-9.60518974e-06 9.60518974e-06,19.2656958 9.60518974e-06,43.0312404 Z"></path>
                    </g>
                    <g id="分组复制" transform="translate(21.635156, 16.734375)">
                        <g id="分组" transform="translate(7.650000, 0.000000)" fill="#FFFFFF">
                            <path d="M4.57486467,13.7532001 C4.57486467,8.68983406 8.67778727,4.58510675 13.7389272,4.58510675 C18.8000671,4.58510675 22.9029897,8.68983406 22.9029897,13.7532001 L22.9029897,18.3472028 L27.4850209,18.3472028 L27.4850209,13.7559935 C27.4850209,6.16481222 21.3338587,0.0110160372 13.7461582,0.0110160372 L13.7460866,0.0110160372 C6.15831443,0.0110160372 0.00722385864,6.16481222 0.00722385864,13.7559935 L0.00722385864,18.3472028 L4.57486467,18.3472028 L4.57486467,13.7532001 Z" id="Fill-1"></path>
                        </g>
                        <g id="分组" transform="translate(0.000000, 17.571094)">
                            <mask id="mask-2" fill="white">
                                <use xlink:href="#path-1"></use>
                            </mask>
                            <g id="Clip-4"></g>
                            <path d="M41.1952858,28.5679759 L1.71650451,28.5679759 C0.772375178,28.5679759 3.57597656e-05,27.7966407 3.57597656e-05,26.8538978 L3.57597656e-05,1.71408527 C3.57597656e-05,0.771342298 0.772375178,7.14199219e-06 1.71650451,7.14199219e-06 L41.1952858,7.14199219e-06 C42.1392721,7.14199219e-06 42.9117545,0.771342298 42.9117545,1.71408527 L42.9117545,26.8538978 C42.9117545,27.7966407 42.1392721,28.5679759 41.1952858,28.5679759" id="Fill-3" fill="#FFFFFF" mask="url(#mask-2)"></path>
                        </g>
                        <path d="M21.515625,25.4601563 C22.4308546,25.4601563 23.1729096,26.181832 23.1729096,27.0721584 L23.1729477,32.3723269 C24.1134764,32.9362916 24.7429688,33.9657122 24.7429688,35.1421875 C24.7429688,36.9246383 23.297995,38.3695313 21.515573,38.3695313 C19.733255,38.3695313 18.2882813,36.9246383 18.2882813,35.1421875 C18.2882813,33.9657122 18.9177736,32.9362916 19.8582724,32.3723269 L19.8583404,27.0721584 C19.8583404,26.2286912 20.5243399,25.5365893 21.3726371,25.4660729 L21.515625,25.4601563 Z" id="形状结合" fill="#A3B5D6"></path>
                    </g>
                </g>
            </g>
        </g>
    </g>
</svg>