<?xml version="1.0" encoding="UTF-8"?>
<svg width="24px" height="24px" viewBox="0 0 24 24" version="1.1" xmlns="http://www.w3.org/2000/svg" xmlns:xlink="http://www.w3.org/1999/xlink">
    <title></title>
    <g id="创建计划" stroke="none" stroke-width="1" fill="none" fill-rule="evenodd">
        <g id="running" fill="#649FF6">
            <path d="M11.8405316,0 C15.3289037,0.0897009787 18.2093023,1.26578072 20.4717608,3.5282392 C22.7342193,5.79069767 23.910299,8.67109634 24,12.1594684 C23.910299,15.4883721 22.7342193,18.269103 20.4717608,20.5116279 C18.2093023,22.7541528 15.3289037,23.910299 11.8405316,24 C8.51162792,23.910299 5.730897,22.744186 3.48837209,20.5116279 C1.24584718,18.269103 0.0897010063,15.4883721 0,12.1594684 C0.0897010063,8.67109634 1.25581395,5.80066444 3.48837209,3.5282392 C5.730897,1.26578072 8.51162789,0.0897009787 11.8405316,0 Z M11.9152824,5.625 C10.1468023,5.67265364 8.66953903,6.29744601 7.47819767,7.49937707 C6.29215116,8.70660298 5.67265366,10.2315199 5.625,12.0847176 C5.67265366,13.8531977 6.28685632,15.330461 7.47819767,16.5218023 C8.66953903,17.7078488 10.1468023,18.3273463 11.9152824,18.375 C13.7684801,18.3273463 15.2986919,17.7131437 16.5006229,16.5218023 C16.591536,16.4316902 16.6791472,16.3399423 16.7634563,16.2465562 L16.7634563,16.2465562 L15.6486531,15.379477 C15.602902,15.4283551 15.5559638,15.4766446 15.5078385,15.5243459 C14.5710392,16.4528914 13.3783742,16.9316082 11.9339701,16.96875 C10.5555959,16.9316082 9.40419954,16.4487645 8.47565407,15.5243459 C7.5471086,14.5958005 7.06839182,13.4444041 7.03125,12.0660299 C7.06839182,10.6216258 7.55123546,9.43308762 8.47565407,8.49216154 C9.40419954,7.55536233 10.5555959,7.06839181 11.9339701,7.03125 C13.3210509,7.06691779 14.4759775,7.51741857 15.3950951,8.38275236 L15.3950951,8.38275236 L14.0740654,9.6584317 L17.9137451,9.990659 L17.7157231,6.1417237 L16.4059065,7.40650835 C15.2186499,6.26524686 13.7201448,5.67141074 11.9152824,5.625 Z" id="形状结合备份-3"></path>
        </g>
    </g>
</svg>