<?xml version="1.0" encoding="UTF-8"?>
<svg width="64px" height="60px" viewBox="0 0 64 60" version="1.1" xmlns="http://www.w3.org/2000/svg" xmlns:xlink="http://www.w3.org/1999/xlink">
    <title></title>
    <g id="tone首页" stroke="none" stroke-width="1" fill="none" fill-rule="evenodd">
        <g id="系统介绍-3" transform="translate(-985.000000, -269.000000)" fill-rule="nonzero">
            <g id="编组" transform="translate(126.000000, 100.000000)">
                <g id="编组-9" transform="translate(11.000000, 140.000000)">
                    <g id="编组-7" transform="translate(56.000000, 27.000000)">
                        <g id="数据分析" transform="translate(792.000000, 2.000000)">
                            <path d="M64,6.85714286 L64,50.2857143 L0,50.2857143 L0,6.85714286 L64,6.85714286 Z M58.2857143,12.5714286 L5.71428572,12.5714286 L5.71428572,44.5714286 L58.2857143,44.5714286 L58.2857143,12.5714286 Z" id="形状结合" fill="#1C8AEC"></path>
                            <polygon id="矩形" fill="#EDEDED" points="5.48571428 12.5714286 23.7714286 12.5714286 46.6285714 44.5714286 5.48571428 44.5714286"></polygon>
                            <rect id="矩形" fill="#A4D0F7" x="22.6285715" y="53.4857143" width="18.2857143" height="5.71428571"></rect>
                            <rect id="矩形备份" fill="#D8D8D8" x="13.4857142" y="34.5142858" width="36.5714286" height="4.57142858"></rect>
                            <rect id="矩形备份" fill="#A4D0F7" x="13.4857142" y="34.5142858" width="27.4285715" height="4.57142858"></rect>
                            <path d="M30.7495798,5.47769568 L33.5569749,5.47769568 L39.6315967,14.3516452 L36.2756303,14.3516452 L33.3714286,10.5519814 L33.3714286,17.7479478 L30.9512606,17.7479478 L30.9512606,10.4874436 L28.0067228,14.3193764 L24.6668908,14.3193764 L30.7495798,5.47769568 Z M19.6571429,12.1008889 C19.6571429,18.7837797 25.0750925,24.2018318 31.7579832,24.2018318 C32.5711596,24.2041495 33.381916,24.1226705 34.1781513,23.9597125 C40.7263193,22.622973 44.9511261,16.2313092 43.6143866,9.68314106 C42.2776471,3.13497299 35.8859832,-1.08983373 29.3378151,0.246905767 C23.7044706,1.39648559 19.6579496,6.35137635 19.6571429,12.1008889 L19.6571429,12.1008889 Z" id="Fill-7" fill="#181818"></path>
                            <polygon id="路径" fill="#FFFFFF" points="30.7495798 5.47769568 33.5569749 5.47769568 39.6315967 14.3516452 36.2756303 14.3516452 33.3714286 10.5519814 33.3714286 17.7479478 30.9512606 17.7479478 30.9512606 10.4874436 28.0067228 14.3193764 24.6668908 14.3193764"></polygon>
                        </g>
                    </g>
                </g>
            </g>
        </g>
    </g>
</svg>