<?xml version="1.0" encoding="UTF-8"?>
<svg width="64px" height="62px" viewBox="0 0 64 62" version="1.1" xmlns="http://www.w3.org/2000/svg" xmlns:xlink="http://www.w3.org/1999/xlink">
    <title></title>
    <g id="tone首页" stroke="none" stroke-width="1" fill="none" fill-rule="evenodd">
        <g id="系统介绍-3" transform="translate(-1183.000000, -268.000000)" fill-rule="nonzero">
            <g id="编组" transform="translate(126.000000, 100.000000)">
                <g id="编组-9" transform="translate(11.000000, 140.000000)">
                    <g id="编组-7" transform="translate(56.000000, 27.000000)">
                        <g id="ci" transform="translate(990.000000, 1.000000)">
                            <polygon id="Fill-20-Copy-2" fill="#EBECEC" points="15.1337457 0 0 0 0 14.3135931 0 61.8742448 64 61.8742448 64 0"></polygon>
                            <polygon id="Fill-20-Copy-2" fill="#EBECEC" points="15.1337457 0 0 0 0 14.3135931 0 61.8742448 64 61.8742448 64 0"></polygon>
                            <polygon id="Fill-20-Copy-2" fill="#1C8AEC" points="21.2222808 7.55526738 10.0488778 7.55526738 10.0488778 18.1236018 10.0488778 53.2396535 57.3007482 53.2396535 57.3007482 7.55526738"></polygon>
                            <polygon id="Fill-20-Copy-3" fill="#A4D0F7" points="7.92068549 29.1417456 0 29.1417456 0 36.6322628 0 61.5214629 33.4962593 61.5214629 33.4962593 29.1417456"></polygon>
                            <polygon id="矩形" fill="#FFFFFF" transform="translate(27.913550, 34.626303) rotate(-45.000000) translate(-27.913550, -34.626303) " points="10.3001001 31.5837265 45.4339543 32.1792156 45.5269995 37.6688803 10.3931452 37.0733912"></polygon>
                            <polygon id="Fill-20-Copy-3" fill="#181818" points="0 44.2522803 0 61.5214629 17.8646716 61.5214629 17.8646716 44.2522803"></polygon>
                            <polygon id="矩形" fill="#FFFFFF" points="30.0556626 17.2691826 45.6872503 17.2691826 45.6872503 32.3797173"></polygon>
                        </g>
                    </g>
                </g>
            </g>
        </g>
    </g>
</svg>