<?xml version="1.0" encoding="UTF-8"?>
<svg width="64px" height="58px" viewBox="0 0 64 58" version="1.1" xmlns="http://www.w3.org/2000/svg" xmlns:xlink="http://www.w3.org/1999/xlink">
    <title></title>
    <defs>
        <polygon id="path-1" points="1.9766033e-16 -1.58604841e-15 31.8576954 -1.58604841e-15 31.8576954 54.3848156 1.9766033e-16 54.3848156"></polygon>
        <polygon id="path-3" points="0.283972476 0.283972476 0.814939375 0.283972476 0.814939375 0.814939375 0.283972476 0.814939375"></polygon>
        <polygon id="path-5" points="0.283972476 0.283972476 0.814939375 0.283972476 0.814939375 0.814939375 0.283972476 0.814939375"></polygon>
    </defs>
    <g id="tone首页" stroke="none" stroke-width="1" fill="none" fill-rule="evenodd">
        <g id="系统介绍-3" transform="translate(-589.000000, -270.000000)">
            <g id="编组" transform="translate(126.000000, 100.000000)">
                <g id="编组-9" transform="translate(11.000000, 140.000000)">
                    <g id="编组-7" transform="translate(56.000000, 27.000000)">
                        <g id="环境" transform="translate(396.000000, 3.000000)">
                            <path d="M14.5478673,7.29028172 L9.61412283,2.35653729 C3.39437657,8.57734549 0.283972476,16.7308732 0.283972476,24.884401 L7.25875367,24.884401 C7.2598156,18.5159839 9.68952013,12.1486289 14.5478673,7.29028172" id="Fill-1" fill="#1C8AEC" fill-rule="nonzero"></path>
                            <path d="M32.1424113,6.96416186 L32.1424113,0 C25.7739942,0.0010619338 19.4066392,2.43076647 14.5482921,7.29017553 L19.4703552,12.2122387 C22.969427,8.71316682 27.5559191,6.96416186 32.1424113,6.96416186" id="Fill-3" fill="#C3C5C6" fill-rule="nonzero"></path>
                            <path d="M19.4707799,12.2126635 L14.5476548,7.29060031 C9.68930775,12.1489474 7.25960322,18.5163025 7.25854128,24.8847195 L14.2227031,24.8847195 C14.2227031,20.2982274 15.9717081,15.7117354 19.4707799,12.2126635" id="Fill-5" fill="#1C8AEC" fill-rule="nonzero"></path>
                            <path d="M14.2222784,24.8842947 L7.25811372,24.8842947 C7.25599264,31.2537736 9.68569717,37.6232525 14.5429824,42.4837236 L19.4703552,37.5563508 C15.9712834,34.056217 14.2222784,29.4707868 14.2222784,24.8842947" id="Fill-7" fill="#EBECEC" fill-rule="nonzero"></path>
                            <path d="M19.4707799,37.5559259 L14.5423452,42.4832987 C14.5444691,42.4854226 14.545531,42.4864846 14.5476548,42.4886085 C19.406002,47.3469556 25.774419,49.7766601 32.142836,49.7777221 L32.142836,42.8040028 C27.555282,42.8040028 22.9698519,41.0549978 19.4707799,37.5559259" id="Fill-9" fill="#A4D0F7" fill-rule="nonzero"></path>
                            <path d="M32.1424113,14.9286653 L32.1424113,6.96416186 C27.5559191,6.96416186 22.969427,8.71316682 19.4703552,12.2122387 L25.1017902,17.8447356 C27.046191,15.9013967 29.5948321,14.9286653 32.1424113,14.9286653" id="Fill-11" fill="#C3C5C6" fill-rule="nonzero"></path>
                            <path d="M44.8132991,12.2123449 C41.3142273,8.71327302 36.7277351,6.96426805 32.142305,6.96426805 L32.142305,14.9287716 C34.6898842,14.9287716 37.2374634,15.900441 39.1818642,17.8448417 L44.8132991,12.2123449 Z" id="Fill-13" fill="#181818" fill-rule="nonzero"></path>
                            <path d="M19.4704613,12.2123449 C15.9713895,15.7124787 14.2223845,20.2979088 14.2223845,24.884401 L22.186888,24.884401 C22.186888,22.3357598 23.1585574,19.7892425 25.1018963,17.8448417 L19.4704613,12.2123449 Z" id="Fill-15" fill="#1C8AEC" fill-rule="nonzero"></path>
                            <path d="M14.2222784,24.8842947 C14.2222784,29.4707868 15.9712834,34.056217 19.4703552,37.5563508 L25.1017902,31.9238539 C23.1584513,29.9794531 22.1867819,27.4318739 22.1867819,24.8842947 L14.2222784,24.8842947 Z" id="Fill-17" fill="#EBECEC" fill-rule="nonzero"></path>
                            <g id="Fill-19-Clipped" transform="translate(32.142305, 2.357068)">
                                <mask id="mask-2" fill="white">
                                    <use xlink:href="#path-1"></use>
                                </mask>
                                <g id="path-1"></g>
                                <path d="M22.5268017,-1.58604841e-15 L17.5983669,4.92843476 L12.6720561,9.85580758 L7.03955916,15.4872425 C8.98395994,17.4316433 9.95562937,19.9792225 9.95562937,22.5268017 C9.95562937,25.0754428 8.98289801,27.623022 7.03955916,29.5663608 C5.09515836,31.5107616 2.54864112,32.482431 1.9766033e-16,32.482431 L1.9766033e-16,40.4469345 L1.9766033e-16,47.4206538 L1.9766033e-16,54.3848156 C8.15246577,54.3848156 16.3059935,51.2754734 22.5268017,45.0546653 C28.746548,38.8338571 31.856952,30.6803294 31.858014,22.5268017 C31.858014,14.3743359 28.746548,6.2208082 22.5268017,-1.58604841e-15" id="Fill-19" fill="#1C8AEC" fill-rule="nonzero" mask="url(#mask-2)"></path>
                            </g>
                            <path d="M25.1018963,31.9237476 L19.4704613,37.5562445 C22.9695333,41.0553164 27.5560253,42.8043213 32.1425174,42.8043213 L32.1425174,34.8398179 C29.5938763,34.8398179 27.0462971,33.8681484 25.1018963,31.9237476" id="Fill-21" fill="#A4D0F7" fill-rule="nonzero"></path>
                            <g id="Fill-23-Clipped" transform="translate(0.000000, 55.927370)">
                                <mask id="mask-4" fill="white">
                                    <use xlink:href="#path-3"></use>
                                </mask>
                                <g id="path-3"></g>
                            </g>
                            <g id="Fill-25-Clipped" transform="translate(0.000000, 55.927370)">
                                <mask id="mask-6" fill="white">
                                    <use xlink:href="#path-5"></use>
                                </mask>
                                <g id="path-5"></g>
                            </g>
                        </g>
                    </g>
                </g>
            </g>
        </g>
    </g>
</svg>