<?xml version="1.0" encoding="UTF-8"?>
<svg width="64px" height="64px" viewBox="0 0 64 64" version="1.1" xmlns="http://www.w3.org/2000/svg" xmlns:xlink="http://www.w3.org/1999/xlink">
    <title></title>
    <g id="tone首页" stroke="none" stroke-width="1" fill="none" fill-rule="evenodd">
        <g id="系统介绍-3" transform="translate(-193.000000, -267.000000)" fill-rule="nonzero">
            <g id="编组" transform="translate(126.000000, 100.000000)">
                <g id="编组-9" transform="translate(11.000000, 140.000000)">
                    <g id="一站式" transform="translate(56.000000, 27.000000)">
                        <polygon id="Fill-1" fill="#EBECEC" points="0 64 39.4666667 64 39.4666667 24.5333333 0 24.5333333"></polygon>
                        <polygon id="Fill-2" fill="#C3C5C6" points="11.7333333 51.2 39.4666667 51.2 39.4666667 24.5333333 11.7333333 24.5333333"></polygon>
                        <polygon id="Fill-2" fill="#181818" points="21.7866666 41.5333333 39.4666667 41.5333333 39.4666667 24.5333333 21.7866666 24.5333333"></polygon>
                        <polygon id="Fill-3" fill="#A1CDF4" points="20.2699617 30.5704437 20.2666666 30.5704437 20.2676081 30.5713808 20.2666666 30.5723179 20.2699617 30.5723179 41.3806463 43.7333333 62.9300384 31.29716 62.9333333 31.29716 62.9319212 31.2962229 62.9333333 31.2952859 62.9300384 31.2952859 41.8193538 18.1333333"></polygon>
                        <polygon id="Fill-4" fill="#62B2F9" points="20.2704324 20.970457 20.2666666 20.970457 20.2685495 20.971394 20.2666666 20.9723311 20.2704324 20.9723311 41.380884 34.1333333 62.9300384 21.6971468 62.9333333 21.6971468 62.9319213 21.6962097 62.9333333 21.6948041 62.9300384 21.6948041 41.8195868 8.53333333"></polygon>
                        <polygon id="Fill-5" fill="#1C8AEC" points="42.8862534 0 21.3370991 12.4371236 21.3333333 12.4371236 21.3352162 12.4375922 21.3333333 12.4385293 21.3370991 12.4385293 42.4475507 25.6 63.9967051 13.1633449 64 13.1633449 63.9981172 13.1624078 64 13.1614707 63.9967051 13.1614707"></polygon>
                    </g>
                </g>
            </g>
        </g>
    </g>
</svg>