<?xml version="1.0" encoding="UTF-8"?>
<svg width="16px" height="16px" viewBox="0 0 16 16" version="1.1" xmlns="http://www.w3.org/2000/svg" xmlns:xlink="http://www.w3.org/1999/xlink">
    <title></title>
    <g id="Symbols" stroke="none" stroke-width="1" fill="none" fill-rule="evenodd">
        <g id="S_Success" transform="translate(-4.000000, -4.000000)">
            <g id="成功" transform="translate(4.000000, 4.000000)">
                <rect id="Rectangle" fill="#000000" fill-rule="nonzero" opacity="0" x="0" y="0" width="16" height="16"></rect>
                <path d="M8,0 C3.58171875,0 0,3.58171875 0,8 C0,12.4182812 3.58171875,16 8,16 C12.4182812,16 16,12.4182812 16,8 C16,3.58171875 12.4182812,0 8,0 Z M12.3752188,6.09965625 L7.1603125,11.3145312 C7.03828125,11.4365625 6.84040625,11.4365625 6.718375,11.3145312 L3.62478125,8.2209375 C3.50275,8.0989375 3.50275,7.9010625 3.62478125,7.77903125 L4.5970625,6.80678125 C4.71909375,6.68471875 4.91696875,6.68475 5.039,6.80678125 L6.939375,8.70709375 L10.9610625,4.6854375 C11.0830937,4.56340625 11.2809375,4.56340625 11.403,4.6854375 L12.37525,5.65771875 C12.49725,5.77975 12.4972813,5.977625 12.3752188,6.09965625 Z" id="Shape" fill="#81BF84"></path>
            </g>
        </g>
    </g>
</svg>