<?xml version="1.0" encoding="UTF-8"?>
<svg width="12px" height="14px" viewBox="0 0 12 14" version="1.1" xmlns="http://www.w3.org/2000/svg" xmlns:xlink="http://www.w3.org/1999/xlink">
    <title></title>
    <g id="页面-1" stroke="none" stroke-width="1" fill="none" fill-rule="evenodd">
        <g id="新建报告模板-添加项/组" transform="translate(-304.000000, -614.000000)" fill="#000000" fill-rule="nonzero">
            <g id="Group-16备份" transform="translate(220.000000, 379.000000)">
                <g id="编组备份" transform="translate(20.000000, 64.000000)">
                    <g id="编组-10" transform="translate(48.000000, 158.000000)">
                        <g id="编组" transform="translate(14.000000, 12.000000)">
                            <rect id="矩形" opacity="0" x="0" y="0" width="16" height="16"></rect>
                            <path d="M11,1.6 L6.2,1.6 C5.36,1.6 4.6,2.36 4.6,3.2 L4.12,3.2 C3.28,3.2 2.6,3.96 2.6,4.8 L2.6,12.8 C2.6,13.64 3.36,14.4 4.2,14.4 L10.2,14.4 C11.04,14.4 11.8,13.64 11.8,12.8 L12.2,12.8 C13.04,12.8 13.8,12.04 13.8,11.2 L13.8,4.8 L11,1.6 Z M10.2,13.6 L4.2,13.6 C3.8,13.6 3.4,13.2 3.4,12.8 L3.4,4.8 C3.4,4.4 3.76,4 4.16,4 L4.6,4 L4.6,11.2 C4.6,12.04 5.36,12.8 6.2,12.8 L11,12.8 C11,13.2 10.6,13.6 10.2,13.6 Z M13,11.2 C13,11.6 12.6,12 12.2,12 L6.2,12 C5.8,12 5.4,11.6 5.4,11.2 L5.4,3.2 C5.4,2.8 5.8,2.4 6.2,2.4 L10.2,2.4 L10.2,4 C10.2,4.84 10.96,5.6 11.8,5.6 L13,5.6 L13,11.2 L13,11.2 Z M11.8,4.8 C11.36,4.8 11,4.04 11,3.6 L11,2.4 L13,4.8 L11.8,4.8 L11.8,4.8 Z M11,7.2 L7.4,7.2 C7.16,7.2 7,7.36 7,7.6 C7,7.84 7.16,8 7.4,8 L11,8 C11.24,8 11.4,7.84 11.4,7.6 C11.4,7.4 11.24,7.2 11,7.2 Z M11,9.2 L7.4,9.2 C7.16,9.2 7,9.36 7,9.6 C7,9.84 7.16,10 7.4,10 L11,10 C11.24,10 11.4,9.84 11.4,9.6 C11.4,9.4 11.24,9.2 11,9.2 Z" id="形状" fill-opacity="0.85"></path>
                        </g>
                    </g>
                </g>
            </g>
        </g>
    </g>
</svg>