<?xml version="1.0" encoding="UTF-8"?>
<svg width="24px" height="24px" viewBox="0 0 24 24" version="1.1" xmlns="http://www.w3.org/2000/svg" xmlns:xlink="http://www.w3.org/1999/xlink">
    <title>Group 9</title>
    <g id="dashboard" stroke="none" stroke-width="1" fill="none" fill-rule="evenodd">
        <g id="2" transform="translate(-258.000000, -292.000000)" fill-rule="nonzero">
            <g id="Group-9-Copy-3" transform="translate(20.000000, 216.000000)">
                <g id="Group-6-Copy-2" transform="translate(10.000000, 60.000000)">
                    <g id="Group-9" transform="translate(228.000000, 16.000000)">
                        <path d="M23.9977419,12 C24.1177202,19.4483056 19.4481654,24.1130949 11.9999135,23.9979149 C4.55166161,24.1130949 -0.1130941,19.4483056 0.00208505587,12 C-0.1130941,4.5516944 4.55166161,-0.113094915 11.9999135,0.00208507091 C19.4481654,-0.113094915 24.1129211,4.55169443 23.9977419,12 Z" id="Path" fill="#0D51FF"></path>
                        <g id="晴天-01" transform="translate(3.000000, 3.000022)">
                            <rect id="Rectangle" fill="#000000" opacity="0" x="0" y="0" width="18" height="18.0001298"></rect>
                            <path d="M15.1571426,9.01637751 C15.1571426,12.4375272 12.3836484,15.2109534 8.96264648,15.2109534 C5.54143359,15.2109534 2.76830859,12.4375272 2.76830859,9.01637751 C2.76830859,5.59524542 5.54143359,2.82210042 8.96264648,2.82210042 C12.3836484,2.82210042 15.1571426,5.59524542 15.1571426,9.01637751 Z" id="Path" fill="#F6D347"></path>
                            <path d="M9.80827734,1.07672065 C9.80827734,1.65914087 9.48596484,2.13129271 9.08873437,2.13129271 C8.69131055,2.13129271 8.36929687,1.65914087 8.36929687,1.07672065 C8.36929687,0.494318017 8.69131055,0.0221661754 9.08873437,0.0221661754 C9.48596484,0.0221661754 9.80827734,0.494335595 9.80827734,1.07672065 Z M9.80827734,16.892823 C9.80827734,17.4752783 9.48596484,17.947395 9.08873437,17.947395 C8.69131055,17.947395 8.36929687,17.4752783 8.36929687,16.892823 C8.36929687,16.3106137 8.69131055,15.838497 9.08873437,15.838497 C9.48596484,15.838497 9.80827734,16.3106137 9.80827734,16.892823 Z" id="Shape" fill="#F6D347"></path>
                            <path d="M16.8705352,9.73357018 C16.2883125,9.73357018 15.8159883,9.41146629 15.8159883,9.01412749 C15.8159883,8.61687658 16.2883125,8.29447386 16.8705352,8.29447386 C17.452916,8.29447386 17.9249941,8.61689416 17.9249941,9.01412749 C17.9249941,9.41144871 17.452916,9.73357018 16.8705352,9.73357018 Z M1.05454687,9.73346471 C0.472148438,9.73346471 0,9.41144871 0,9.01391655 C0,8.6167008 0.472148438,8.29445629 1.05454687,8.29445629 C1.63676953,8.29445629 2.10890039,8.6167008 2.10890039,9.01391655 C2.10890039,9.41144871 1.63676953,9.73346471 1.05454687,9.73346471 Z" id="Shape" fill="#F6D347"></path>
                            <path d="M14.8552383,3.93100686 C14.4432422,4.34281256 13.8816035,4.44873911 13.6006523,4.1678738 C13.3196836,3.88670966 13.4258203,3.32515483 13.837623,2.91334913 C14.2494082,2.501561 14.8111348,2.39542352 15.091998,2.67648219 C15.3729668,2.95747054 15.2667422,3.51909568 14.8552383,3.93100686 Z M3.67145508,15.1145894 C3.25965234,15.5265885 2.69811914,15.6325151 2.4170625,15.3515267 C2.13618164,15.0704856 2.24201953,14.5090362 2.65401563,14.0971427 C3.06571289,13.6853194 3.62735156,13.5793225 3.9084082,13.8602757 C4.18937695,14.1413344 4.08325781,14.7028892 3.67145508,15.1145894 L3.67145508,15.1145894 Z" id="Shape" fill="#F6D347"></path>
                            <path d="M2.93280469,3.81583415 C3.34460742,4.22762228 3.9061582,4.33374218 4.18721484,4.05287688 C4.46827148,3.77173032 4.36225781,3.21017549 3.95045508,2.79847525 C3.53865234,2.38656408 2.9769082,2.28044418 2.69595703,2.56152042 C2.41488281,2.84247362 2.52110742,3.40394056 2.93280469,3.81583415 L2.93280469,3.81583415 Z M14.1165,14.9996101 C14.5284082,15.4114334 15.0899414,15.5174302 15.3710859,15.2365474 C15.6518789,14.9555942 15.5458125,14.3939339 15.1340273,13.9819348 C14.7222422,13.5702346 14.1606914,13.4643432 13.8797402,13.7452085 C13.5986836,14.0261793 13.7045918,14.5878044 14.1165,14.9996101 Z" id="Shape" fill="#F6D347"></path>
                            <path d="M13.0974961,8.08495868 C13.0974961,10.8280976 10.8744609,13.0522035 8.1307793,13.0522035 C5.38708008,13.0522035 3.1627793,10.8280976 3.1627793,8.08495868 C3.1627793,5.3410639 5.38708008,3.11674708 8.1307793,3.11674708 C10.8744609,3.11674708 13.0974961,5.34108148 13.0974961,8.08495868 Z" id="Path" fill="#F6E645"></path>
                            <path d="M7.3685918,5.99750613 C7.3685918,6.26161936 7.15456055,6.47554669 6.89064258,6.47554669 C6.62651367,6.47554669 6.41248242,6.26161936 6.41248242,5.99750613 C6.41248242,5.73346321 6.62651367,5.519448 6.89064258,5.519448 C7.15457812,5.519448 7.3685918,5.73348079 7.3685918,5.99750613 Z M5.86355273,8.94991414 C5.78972461,9.13566352 5.57952539,9.22615636 5.39384766,9.15234528 C5.20857422,9.07849905 5.11811719,8.86821042 5.19154102,8.68274229 L5.79679102,7.1621532 C5.87083008,6.97677296 6.08109961,6.88610433 6.26647852,6.95993299 C6.45205078,7.03377923 6.54261328,7.24405027 6.46878516,7.42941294 L5.86355273,8.94991414 L5.86355273,8.94991414 Z" id="Shape" fill="#FDFDFE"></path>
                            <path d="M9.47859961,1.53844859 C9.47859961,1.8657908 9.2988457,2.13129271 9.07713281,2.13129271 C8.85554297,2.13129271 8.67587695,1.8657908 8.67587695,1.53844859 C8.67587695,1.21091303 8.85554297,0.945586896 9.07713281,0.945586896 C9.2988457,0.945586896 9.47859961,1.21091303 9.47859961,1.53844859 L9.47859961,1.53844859 Z M9.47859961,16.4313235 C9.47859961,16.7588591 9.2988457,17.0241677 9.07713281,17.0241677 C8.85554297,17.0241677 8.67587695,16.7588591 8.67587695,16.4313235 C8.67587695,16.103788 8.85554297,15.8384794 9.07713281,15.8384794 C9.2988457,15.8384794 9.47859961,16.103788 9.47859961,16.4313235 L9.47859961,16.4313235 Z M14.2901543,3.99685499 C14.0558555,4.22565351 13.7404336,4.28253674 13.5856934,4.12376997 C13.4306367,3.96505593 13.4950078,3.65102046 13.7294121,3.42252077 C13.9637109,3.19372224 14.2794141,3.13682144 14.434084,3.2955179 C14.5889473,3.45412647 14.524541,3.76828498 14.2901543,3.99685499 Z M3.47661914,3.90817271 C3.71102344,4.13705912 4.02633984,4.19376656 4.18109766,4.03496464 C4.3361543,3.87637365 4.2717832,3.56214482 4.03755469,3.33362755 C3.80316797,3.1048466 3.48744727,3.04824463 3.33288281,3.20674773 C3.17784375,3.36553208 3.24223242,3.67947965 3.47661914,3.90817271 Z M14.5911094,13.8628421 C14.3568105,13.6341315 14.0411953,13.5773537 13.8864023,13.7360326 C13.7317676,13.8947291 13.7959453,14.2087646 14.0300684,14.4373697 C14.2644551,14.6662561 14.5800703,14.7228581 14.7349336,14.5642847 C14.889709,14.4054476 14.8254961,14.0916055 14.5911094,13.8628421 Z M3.17202539,13.9626514 C3.40623633,13.7338353 3.72195703,13.6769697 3.87660938,13.835631 C4.03166602,13.9943099 3.96727734,14.3083981 3.73297852,14.5371615 C3.49867969,14.7658897 3.18287109,14.8225619 3.02828906,14.6640764 C2.87344336,14.5053272 2.93763867,14.1911336 3.17202539,13.9626514 Z M16.408916,9.41549171 C16.0816816,9.41549171 15.8159883,9.23584198 15.8159883,9.01391655 C15.8159883,8.79239542 16.0816816,8.61244686 16.408916,8.61244686 C16.7364316,8.61244686 17.0019492,8.79239542 17.0019492,9.01391655 C17.0019668,9.23584198 16.7364316,9.41549171 16.408916,9.41549171 Z M1.51627148,9.41549171 C1.18893164,9.41549171 0.923414063,9.23584198 0.923414063,9.01391655 C0.923414063,8.79239542 1.18893164,8.61244686 1.51627148,8.61244686 C1.84359375,8.61244686 2.10911133,8.79239542 2.10911133,9.01391655 C2.10911133,9.23584198 1.84359375,9.41549171 1.51627148,9.41549171 Z" id="Shape" fill="#EDE741"></path>
                        </g>
                    </g>
                </g>
            </g>
        </g>
    </g>
</svg>