<?xml version="1.0" encoding="UTF-8"?>
<svg width="26px" height="26px" viewBox="0 0 26 26" version="1.1" xmlns="http://www.w3.org/2000/svg" xmlns:xlink="http://www.w3.org/1999/xlink">
    <title></title>
    <g id="创建ws" stroke="none" stroke-width="1" fill="none" fill-rule="evenodd">
        <g id="owner初次进入ws引导" transform="translate(-992.000000, -396.000000)">
            <g id="表格" transform="translate(120.000000, 101.000000)">
                <g transform="translate(77.000000, 178.000000)" id="内容组备份">
                    <g transform="translate(771.000000, 93.000000)">
                        <g id="添加成员" transform="translate(24.000000, 24.000000)">
                            <rect id="矩形" x="0" y="0" width="26" height="26"></rect>
                            <path d="M20,2 L20,2.006 L20.0454545,2.00696713 C20.5328234,2.00696713 20.9337749,2.29604069 20.9925759,2.67079447 L21,2.76615022 L21,11.9618767 C21,12.0662644 20.8926136,12.1516725 20.7613636,12.1516725 L20.7613636,12.1516725 L19.0909091,12.1516725 C18.9596591,12.1516725 18.8522727,12.0662644 18.8522727,11.9618767 L18.8522727,11.9618767 L18.852,6.791 L2.147,6.791 L2.14772727,20.4171569 L12.3613636,20.4238052 C12.4926136,20.4238052 12.6,20.5092133 12.6,20.613601 L12.6,20.613601 L12.6,21.9421714 C12.6,22.046559 12.4926136,22.1319671 12.3613636,22.1319671 L12.3613636,22.1319671 L0.954545455,22.1253189 C0.4265625,22.1253189 0,21.7860589 0,21.3661358 L0,21.3661358 L0,2.76615022 C0,2.34622707 0.4265625,2.00696713 0.954545455,2.00696713 L0.954545455,2.00696713 L1,2.006 L1,2 L20,2 Z M10.8434783,13.5 C10.9295652,13.5 11,13.6078125 11,13.7395833 L11,13.7395833 L11,15.1770833 C11,15.3088542 10.9295652,15.4166667 10.8434783,15.4166667 L10.8434783,15.4166667 L5.15652174,15.4166667 C5.07043478,15.4166667 5,15.3088542 5,15.1770833 L5,15.1770833 L5,13.7395833 C5,13.6078125 5.07043478,13.5 5.15652174,13.5 L5.15652174,13.5 Z M14.8,9.66666667 C14.91,9.66666667 15,9.77447917 15,9.90625 L15,9.90625 L15,11.34375 C15,11.4755208 14.91,11.5833333 14.8,11.5833333 L14.8,11.5833333 L5.2,11.5833333 C5.09,11.5833333 5,11.4755208 5,11.34375 L5,11.34375 L5,9.90625 C5,9.77447917 5.09,9.66666667 5.2,9.66666667 L5.2,9.66666667 Z" id="Combined-Shape" fill="#1890FF" fill-rule="nonzero"></path>
                            <g id="图标" transform="translate(14.662864, 13.825159)">
                                <path d="M4.2,3.96 C5.09470129,3.96 5.90470129,4.32264935 6.49102597,4.90897403 C7.07735065,5.49529871 7.44,6.30529871 7.44,7.2 L7.44,7.2 L7.44,8.04 L0.96,8.04 L0.96,7.2 C0.96,6.30529871 1.32264935,5.49529871 1.90897403,4.90897403 C2.49529871,4.32264935 3.30529871,3.96 4.2,3.96 Z" id="Rectangle" stroke="#FFA159" stroke-width="1.92"></path>
                                <path d="M4,0 C5.1045695,-2.02906125e-16 6,0.8954305 6,2 C6,3.1045695 5.1045695,4 4,4 C2.8954305,4 2,3.1045695 2,2 C2,0.8954305 2.8954305,2.02906125e-16 4,0 Z" id="Rectangle" fill="#FFA159"></path>
                            </g>
                        </g>
                    </g>
                </g>
            </g>
        </g>
    </g>
</svg>