<?xml version="1.0" encoding="UTF-8"?>
<svg width="26px" height="26px" viewBox="0 0 26 26" version="1.1" xmlns="http://www.w3.org/2000/svg" xmlns:xlink="http://www.w3.org/1999/xlink">
    <title></title>
    <g id="创建ws" stroke="none" stroke-width="1" fill="none" fill-rule="evenodd">
        <g id="owner初次进入ws引导" transform="translate(-221.000000, -396.000000)">
            <g id="表格" transform="translate(120.000000, 101.000000)">
                <g transform="translate(77.000000, 178.000000)" id="内容组">
                    <g transform="translate(0.000000, 93.000000)">
                        <g id="Job" transform="translate(24.000000, 24.000000)">
                            <rect id="矩形" x="0" y="0" width="26" height="26"></rect>
                            <path d="M22.0884549,15.0072701 L22.0884549,18.0072701 L25.0884549,18.0072701 L25.0884549,20.0072701 L22.0884549,20.0072701 L22.0884549,23.0072701 L20.0884549,23.0072701 L20.0874549,20.0072701 L17.0884549,20.0072701 L17.0884549,18.0072701 L20.0884549,18.0072701 L20.0884549,15.0072701 L22.0884549,15.0072701 Z" id="形状结合" fill="#FFA159"></path>
                            <path d="M21,2 L21,2.007 L21.0454545,2.00727005 C21.5328234,2.00727005 21.9337749,2.30891203 21.9925759,2.69995945 L22,2.7994611 L22,12.3515235 C22,12.4422954 21.9254261,12.519314 21.8246133,12.5424654 L21.7613636,12.5495713 L20.0909091,12.5495713 C19.9815341,12.5495713 19.8887311,12.4876814 19.8608349,12.4040153 L19.8522727,12.3515235 L19.852,7 L3.147,7 L3.14772727,21.2179029 L14.3613636,21.2248402 C14.4707386,21.2248402 14.5635417,21.2867301 14.5914378,21.3703961 L14.6,21.422888 L14.6,22.8092223 C14.6,22.8999942 14.5254261,22.9770128 14.4246133,23.0001642 L14.3613636,23.0072701 L1.95454545,23.0003327 C1.46717657,23.0003327 1.06622512,22.6986908 1.00742412,22.3076434 L1,22.2081417 L1,2.7994611 C1,2.39498663 1.36346154,2.06223123 1.83465159,2.01343144 L1.95454545,2.00727005 L2,2.007 L2,2 L21,2 Z M15.3109532,9.39176986 L16.8984747,10.6082301 L12.5509408,16.2819077 L8.81680525,14.2876253 L6.46102401,17.4529852 L4.85659751,16.25891 L8.24030193,11.7123747 L11.9958488,13.7180923 L15.3109532,9.39176986 Z" id="形状结合" fill="#1890FF" fill-rule="nonzero"></path>
                        </g>
                    </g>
                </g>
            </g>
        </g>
    </g>
</svg>