<?xml version="1.0" encoding="UTF-8"?>
<svg width="26px" height="26px" viewBox="0 0 26 26" version="1.1" xmlns="http://www.w3.org/2000/svg" xmlns:xlink="http://www.w3.org/1999/xlink">
    <title></title>
    <g id="创建ws" stroke="none" stroke-width="1" fill="none" fill-rule="evenodd">
        <g id="owner初次进入ws引导" transform="translate(-608.000000, -396.000000)">
            <g id="表格" transform="translate(120.000000, 101.000000)">
                <g transform="translate(77.000000, 178.000000)" id="内容组">
                    <g transform="translate(386.000000, 93.000000)">
                        <g id="设置" transform="translate(25.000000, 24.000000)">
                            <rect id="矩形" x="0" y="0" width="26" height="26"></rect>
                            <path d="M20,2 L20,2.007 L20.0454545,2.00727005 C20.5328234,2.00727005 20.9337749,2.30891203 20.9925759,2.69995945 L21,2.7994611 L21,11.3515235 C21,11.4604498 20.8926136,11.5495713 20.7613636,11.5495713 L20.7613636,11.5495713 L19.0909091,11.5495713 C18.9596591,11.5495713 18.8522727,11.4604498 18.8522727,11.3515235 L18.8522727,11.3515235 L18.852,7 L2.147,7 L2.14772727,21.2179029 L12.3613636,21.2248402 C12.4926136,21.2248402 12.6,21.3139617 12.6,21.422888 L12.6,21.422888 L12.6,22.8092223 C12.6,22.9181486 12.4926136,23.0072701 12.3613636,23.0072701 L12.3613636,23.0072701 L0.954545455,23.0003327 C0.4265625,23.0003327 0,22.6463224 0,22.2081417 L0,22.2081417 L0,2.7994611 C0,2.36128042 0.4265625,2.00727005 0.954545455,2.00727005 L0.954545455,2.00727005 L1,2.007 L1,2 L20,2 Z M10.8434783,14 C10.9295652,14 11,14.1125 11,14.25 L11,14.25 L11,15.75 C11,15.8875 10.9295652,16 10.8434783,16 L10.8434783,16 L5.15652174,16 C5.07043478,16 5,15.8875 5,15.75 L5,15.75 L5,14.25 C5,14.1125 5.07043478,14 5.15652174,14 L5.15652174,14 Z M14.8,10 C14.91,10 15,10.1125 15,10.25 L15,10.25 L15,11.75 C15,11.8875 14.91,12 14.8,12 L14.8,12 L5.2,12 C5.09,12 5,11.8875 5,11.75 L5,11.75 L5,10.25 C5,10.1125 5.09,10 5.2,10 L5.2,10 Z" id="Combined-Shape" fill="#1890FF" fill-rule="nonzero"></path>
                            <path d="M20.0065078,14.8862011 L24.0440866,17.2172984 L24.0440866,21.8794928 L20.0065078,24.2105901 L15.968929,21.8794928 L15.968929,17.2172984 L20.0065078,14.8862011 Z" id="Polygon" stroke="#FFA159" stroke-width="2"></path>
                        </g>
                    </g>
                </g>
            </g>
        </g>
    </g>
</svg>