<?xml version="1.0" encoding="UTF-8"?>
<svg width="12px" height="12px" viewBox="0 0 12 12" version="1.1" xmlns="http://www.w3.org/2000/svg" xmlns:xlink="http://www.w3.org/1999/xlink">
    <title></title>
    <g id="新建job+yaml模式" stroke="none" stroke-width="1" fill="none" fill-rule="evenodd" opacity="0.649999976">
        <g id="新建job+切换表单模式" transform="translate(-187.000000, -198.000000)" fill="#000000" fill-rule="nonzero">
            <g id="编组-6" transform="translate(120.000000, 183.000000)">
                <g id="编组-4备份" transform="translate(67.000000, 10.000000)">
                    <g id="复制" transform="translate(0.000000, 5.000000)">
                        <rect id="矩形" opacity="0" x="0" y="0" width="12" height="12"></rect>
                        <path d="M9.75,9.125 L9.125,9.125 L9.125,8.5 L9.75,8.5 C10.095178,8.5 10.375,8.22017797 10.375,7.875 L10.375,2.25 C10.375,1.90482203 10.095178,1.625 9.75,1.625 L4.125,1.625 C3.77982203,1.625 3.5,1.90482203 3.5,2.25 L3.5,2.875 L2.875,2.875 L2.875,2.25 C2.875,1.55964406 3.43464406,1 4.125,1 L9.75,1 C10.4403559,1 11,1.55964406 11,2.25 L11,7.875 C11,8.56535594 10.4403559,9.125 9.75,9.125 Z M7.875,11 L2.25,11 C1.55964406,11 1,10.4403559 1,9.75 L1,4.125 C1,3.43464406 1.55964406,2.875 2.25,2.875 L7.875,2.875 C8.56535594,2.875 9.125,3.43464406 9.125,4.125 L9.125,9.75 C9.125,10.4403559 8.56535594,11 7.875,11 Z M2.25,3.5 C1.90482203,3.5 1.625,3.77982203 1.625,4.125 L1.625,9.75 C1.625,10.095178 1.90482203,10.375 2.25,10.375 L7.875,10.375 C8.22017797,10.375 8.5,10.095178 8.5,9.75 L8.5,4.125 C8.5,3.77982203 8.22017797,3.5 7.875,3.5 L2.25,3.5 Z" id="形状"></path>
                    </g>
                </g>
            </g>
        </g>
    </g>
</svg>