<?xml version="1.0" encoding="UTF-8"?>
<svg width="12px" height="12px" viewBox="0 0 12 12" version="1.1" xmlns="http://www.w3.org/2000/svg" xmlns:xlink="http://www.w3.org/1999/xlink">
    <title></title>
    <g id="新建job+yaml模式" stroke="none" stroke-width="1" fill="none" fill-rule="evenodd" opacity="0.649999976">
        <g id="新建job+切换表单模式" transform="translate(-241.000000, -198.000000)" fill="#000000" fill-rule="nonzero">
            <g id="编组-6" transform="translate(120.000000, 183.000000)">
                <g id="编组-4备份-3" transform="translate(121.000000, 10.000000)">
                    <g id="下载" transform="translate(0.000000, 5.000000)">
                        <rect id="矩形" opacity="0" x="0" y="0" width="12" height="12"></rect>
                        <path d="M9.76628906,6.76792969 L9.76628906,9.39292969 L2.26628906,9.39292969 L2.26628906,6.76792969 C2.26628906,6.71615299 2.22431576,6.67417969 2.17253906,6.67417969 L1.70378906,6.67417969 C1.65201237,6.67417969 1.61003906,6.71615299 1.61003906,6.76792969 L1.61003906,9.67417969 C1.61003906,9.88128647 1.77793228,10.0491797 1.98503906,10.0491797 L10.0475391,10.0491797 C10.2546458,10.0491797 10.4225391,9.88128647 10.4225391,9.67417969 L10.4225391,6.76792969 C10.4225391,6.71615299 10.3805658,6.67417969 10.3287891,6.67417969 L9.86003906,6.67417969 C9.80826237,6.67417969 9.76628906,6.71615299 9.76628906,6.76792969 Z M5.54015625,7.23808594 L5.54015625,1.9921875 C5.54015625,1.93359375 5.58210938,1.88507812 5.63390625,1.88507812 L6.19640625,1.88507812 C6.24820312,1.88507812 6.29015625,1.93300781 6.29015625,1.9921875 L6.29015625,7.23867188 L5.54015625,7.23808594 Z M5.63929688,7.94273438 L3.2109375,5.14324219 C3.18695638,5.11557797 3.18127346,5.07648476 3.19638545,5.04313764 C3.21149744,5.00979052 3.24463907,4.98829152 3.28125,4.98808594 L3.984375,4.98808594 C4.03874685,4.98808594 4.09044112,5.01168849 4.12605469,5.05277344 L5.92253906,7.12617187 L7.71867187,5.05289063 C7.75428544,5.01180568 7.80597971,4.98820334 7.86035156,4.98820313 L8.56347656,4.98820313 C8.60008749,4.98840871 8.63322912,5.00990771 8.64834111,5.04325483 C8.6634531,5.07660195 8.65777018,5.11569516 8.63378906,5.14335938 L6.20578125,7.94273438 C6.13455555,8.02482249 6.03122006,8.07197257 5.92253906,8.07197257 C5.81385806,8.07197257 5.71052258,8.02482249 5.63929687,7.94273438 L5.63929688,7.94273438 Z" id="形状"></path>
                    </g>
                </g>
            </g>
        </g>
    </g>
</svg>