<?xml version="1.0" encoding="UTF-8"?>
<svg width="10px" height="10px" viewBox="0 0 10 10" version="1.1" xmlns="http://www.w3.org/2000/svg" xmlns:xlink="http://www.w3.org/1999/xlink">
    <title></title>
    <g id="新建job+yaml模式" stroke="none" stroke-width="1" fill="none" fill-rule="evenodd" fill-opacity="0.65">
        <g id="新建job+切换表单模式" transform="translate(-1211.000000, -200.000000)" fill="#000000" fill-rule="nonzero">
            <g id="编组-6" transform="translate(120.000000, 183.000000)">
                <g id="编组-4备份-2" transform="translate(1091.000833, 10.000000)">
                    <g id="切换" transform="translate(0.000000, 7.000000)">
                        <path d="M7.91600701,2.00566619 C8.46849532,2.00566619 8.99835515,2.22514132 9.38902338,2.61580956 C9.77969162,3.00647779 9.99916674,3.53633762 9.99916674,4.08882594 L9.99916674,5.33872178 L9.16590285,5.33872178 L9.16590285,4.08882594 C9.16590285,3.39852752 8.60630542,2.83893009 7.91600701,2.83893009 L0.416631951,2.83893009 C0.235547567,2.83877357 0.075300007,2.72166479 0.020151264,2.54918235 C-0.0349974789,2.3766999 0.027582607,2.18834524 0.174985418,2.08315973 L3.09057579,0 L3.57386885,0.678276807 L1.71569037,2.00566619 L7.91517374,2.00566619 L7.91600701,2.00566619 Z M2.08315974,7.83851346 C1.53067143,7.83851347 1.00081159,7.61903834 0.61014336,7.2283701 C0.219475125,6.83770187 0,6.30784203 0,5.75535372 L0,4.50545788 L0.833263901,4.50545788 L0.833263901,5.75535372 C0.833263901,6.44565213 1.39286133,7.00524956 2.08315974,7.00524956 L9.5825348,7.00524956 C9.76361918,7.00540608 9.92386674,7.12251487 9.97901548,7.29499731 C10.0341642,7.46747976 9.97158413,7.65583442 9.82418132,7.76101992 L6.9077577,9.84417965 L6.42446463,9.16590285 L8.28264312,7.83851346 L2.08232647,7.83851346 L2.08315974,7.83851346 Z" id="形状"></path>
                    </g>
                </g>
            </g>
        </g>
    </g>
</svg>